<?xml version="1.0" encoding="UTF-8"?><svg id="Layer_1" xmlns="http://www.w3.org/2000/svg" viewBox="0 0 137.55 32.49"><defs><style>.cls-1{fill:#fff;stroke-width:0px;}</style></defs><path class="cls-1" d="m42.2,28.75c-5.11,0-8.8-3.55-8.8-8.87s4.47-9.15,10.5-9.15c4.33,0,6.74,2.27,6.74,4.54,0,1.35-.99,2.34-2.55,2.34s-2.7-.92-3.69-2.84c-1.28-2.41-1.77-2.77-2.48-2.77s-1.21.5-1.21,1.84c0,2.98,1.56,6.95,3.62,9.01.99.99,1.7,1.35,2.77,1.35.99,0,1.7-.35,2.55-1.06.28-.21,1.14.35.99.71-.92,2.48-4.19,4.9-8.44,4.9Zm41.29-15.68v6.74c0,3.19.85,3.97,2.34,3.97.43,0,.71-.21.85-.21.35,0,.92.57.85.92-.85,2.13-3.26,4.33-6.46,4.33-3.62,0-5.46-2.27-5.46-5.96v-9.44q0-.35-.43-.43l-1.28-.21c-.21,0-.28-.07-.28-.71,0-.57.07-.71.28-.78,3.62-.85,5.53-2.06,7.73-4.4.21-.21.21-.28.78-.28s.64,0,.71.28c.14.99.21,2.48.28,3.97h3.83c.35,0,.5.14.5,1.06s-.14.99-.5.99c-1.14.14-2.63.14-3.76.14Zm11.99,4.61c.5,1.7,1.42,3.33,2.41,4.33,1.28,1.28,2.2,1.63,3.48,1.63,1.42,0,2.41-.57,3.33-1.42.28-.28,1.14.35.99.71-1.42,3.48-5.25,5.82-8.94,5.82-5.11,0-9.01-3.48-9.01-8.87s4.12-9.15,10.22-9.15c5.11,0,7.88,2.48,7.88,5.75,0,.28,0,.64-.07.92,0,.14-.14.21-.35.21-2.84.07-6.67.14-9.93.07Zm3.19-3.9c0-1.28-.57-1.99-1.49-1.99-1.06,0-2.13.92-2.13,2.98,0,.71.07,1.42.21,2.13l1.06-.14c1.56-.14,2.34-1.28,2.34-2.98Zm-63.79,13.2h0l-1.06-.28c-.35-.07-.35-.14-.5-.5l-5.75-11.99c-1.7-3.55-3.69-8.16-4.68-10.5-.14-.43-.35-.5-1.21-.5-.92,0-1.06.07-1.21.5-.14.28-.28.57-.43.92,1.21,1.35,1.63,3.19,1.21,5.46-.07-4.04-3.26-6.31-6.17-6.31-2.27,0-3.05.43-4.04.92-.92.43-1.99,1.21-2.06,1.56-.14.07.14,7.59.14,7.95,0,.5.5.35,1.14.35,1.06,0,1.14-.21,1.42-1.14.21-.57.43-1.14.64-1.7.28-.64.57-1.49,1.21-2.06.71-.43,1.63-.5,2.13.21.28.43.43.92.5,1.56.07,1.63-.99,3.48-1.56,4.68l-2.55,5.04c-2.27,4.61-2.41,4.82-3.48,5.32l-1.06.5c-.21.07-.28.14-.28.78s.07.71.28.71h9.08c.21,0,.28-.07.28-.71s-.07-.71-.28-.78l-1.77-.64c-.92-.35-.35-.71.78-3.97h7.95l1.35,3.97c.07.14.07.43-.21.5l-2.91.14c-.21,0-.28.14-.28.78s.07.71.28.71h13.13c.21,0,.28-.07.28-.71s-.07-.71-.28-.78Zm-18.73-6.17l3.9-8.23,2.84,8.23h-6.74Zm48.18-7.59c0-.35-.07-.43-.43-.5l-1.14-.28c-.21,0-.28-.14-.28-.71s.07-.78.28-.78c2.98-.07,8.94-.14,9.22-.14s.5.28.5.5c0,.57-.28,2.27-.28,6.46v6.74c0,.35.07.43.43.5l1.14.28h0c.21,0,.28.14.28.71,0,.43-.07,1.49-.07,2.06,0,.21-.21.43-.43.43l-7.52.14c-.64,0-1.14-.14-1.28-.78-.28-1.06-.21-2.41-.28-3.26-.92,2.06-2.91,4.04-5.96,4.04-3.62,0-5.82-2.27-5.82-5.96v-9.37c0-.35-.07-.43-.43-.5l-1.14-.28c-.21,0-.28-.14-.28-.71s.07-.78.28-.78c2.98-.07,8.94-.14,9.22-.14s.5.28.5.5c0,.57-.28,2.27-.28,6.46v1.77c0,3.19.78,4.33,3.05,4.33.21,0,.64,0,.78-.07l-.07-10.64"/><path class="cls-1" d="m118.76,28.75c-7.57,0-11.93-5.74-11.93-13.98,0-7.75,4.36-13.09,11.58-13.09,7.57,0,11.93,5.74,11.93,13.98,0,7.75-4.36,13.09-11.58,13.09Zm1.1-8.49c.21-.86.35-2.06.41-3.35,1.94-.09,3.64-.34,4.3-.74.41-.25.56-.48.63-.76.14-.55-.11-1.11-1.57-1.48-.86-.21-2.06-.35-3.35-.41-.09-1.94-.34-3.64-.74-4.3-.25-.41-.48-.56-.76-.63-.55-.14-1.11.11-1.48,1.57-.21.86-.35,2.06-.41,3.35-1.94.09-3.64.34-4.3.74-.41.25-.56.48-.63.76-.14.55.11,1.11,1.57,1.48.86.21,2.06.35,3.35.41.09,1.94.34,3.64.74,4.3.25.41.48.56.76.63.55.14,1.11-.11,1.48-1.57Z"/><path class="cls-1" d="m128.55,5.21c-.98,0-1.77-.79-1.77-1.77s.79-1.77,1.77-1.77,1.77.79,1.77,1.77-.79,1.77-1.77,1.77Zm0-3.3c-.84,0-1.53.69-1.53,1.53s.69,1.53,1.53,1.53,1.53-.69,1.53-1.53-.69-1.53-1.53-1.53Z"/><path class="cls-1" d="m129.5,4.12s0,.04-.02.04c-.02,0-.2,0-.35,0-.11,0-.23,0-.26,0-.02,0-.04,0-.05-.03-.09-.16-.19-.35-.3-.53-.04-.07-.06-.08-.12-.08h0v.52s0,.02.02.03h.09s.02.02.02.06,0,.04-.02.04c-.05,0-.2-.01-.36-.01s-.32.01-.37.01c-.01,0-.02,0-.02-.04s0-.04.02-.04h.09s.02-.02.02-.04v-1.19s0-.02-.02-.03h-.09s-.02-.02-.02-.06,0-.04.02-.04c.11,0,.27.01.45.01h.11c.07,0,.29,0,.42,0,.33,0,.48.14.48.34,0,.16-.09.29-.29.35.04.08.09.15.19.32.17.27.21.32.28.33h.05s.02.01.02.05Zm-1.02-.69c.1,0,.23-.06.23-.3,0-.18-.09-.32-.27-.32h-.01s-.02,0-.02.02v.59s.04,0,.08,0Z"/></svg>