<?xml version="1.0" encoding="UTF-8"?><svg id="Layer_1" xmlns="http://www.w3.org/2000/svg" viewBox="0 0 137.55 32.49"><defs><style>.cls-1{fill:#fff;stroke-width:0px;}</style></defs><g id="qfHdOm.tif"><path class="cls-1" d="m131.5,2.77c.03.24.07.47.07.71,0,7.48,0,14.96,0,22.44,0,.17,0,.33,0,.5.01,1.11.32,1.45,1.43,1.54.13.01.26.02.42.03v1.1c-.16,0-.34.03-.52.03-2.65,0-5.3,0-7.95.01-.47,0-.63-.15-.72-.61-.21-1.17-.24-1.17-1.24-.51-1.56,1.03-3.21,1.71-5.15,1.57-2.56-.19-4.39-1.42-5.48-3.72-1.03-2.16-1.17-4.47-1.12-6.81.04-1.51.27-2.97.86-4.37,1.15-2.74,3.3-4.23,6.15-4.79,1.76-.35,3.53-.34,5.37-.02,0-.74,0-1.46,0-2.17,0-.59,0-1.18,0-1.77,0-.71-.15-.87-.84-1.01-.16-.03-.33-.08-.49-.08-.48,0-.55-.28-.57-.69-.02-.47.23-.55.6-.58,2.77-.22,5.53-.45,8.3-.69.18-.02.36-.08.53-.12.11,0,.22,0,.33,0Zm-7.86,16.52s0,0,0,0c0-1.83.01-3.65,0-5.48,0-.51-.08-1.03-.18-1.53-.14-.63-.49-1.11-1.19-1.22-.75-.12-1.31.2-1.58.84-.36.84-.68,1.71-.85,2.61-.46,2.44-.46,4.92-.22,7.38.13,1.32.35,2.63,1.02,3.81.5.88,1.27,1.31,1.97,1.12.64-.17,1.05-.89,1.05-1.89,0-1.88,0-3.77,0-5.65Z"/><path class="cls-1" d="m94.47,2.77c0,.2-.03.4-.03.61,0,7.46,0,14.93,0,22.39,0,.17,0,.33,0,.5.03,1.31.32,1.63,1.64,1.69.54.02.45.34.47.67.03.38-.1.52-.5.51-2.76-.01-5.52-.01-8.28,0-.4,0-.55-.16-.62-.53-.22-1.24-.24-1.26-1.29-.55-1.98,1.34-4.09,1.93-6.47,1.33-2.15-.55-3.52-1.96-4.33-3.95-.95-2.35-1.05-4.81-.86-7.29.11-1.39.42-2.73,1.05-3.98,1.22-2.43,3.28-3.73,5.89-4.25,1.72-.34,3.45-.38,5.18-.04.05.01.11-.01.25-.04,0-.35,0-.72,0-1.08,0-.83.02-1.66,0-2.49-.04-1.14-.19-1.3-1.33-1.4-.44-.04-.55-.21-.57-.62-.02-.48.15-.64.62-.67,2.51-.2,5.01-.42,7.52-.64.4-.04.8-.1,1.2-.16.15,0,.3,0,.44,0Zm-7.9,11.68c-.08-.65-.15-1.57-.33-2.46-.1-.51-.51-.85-1.06-.93-.62-.09-1.18.06-1.48.63-.32.61-.65,1.26-.8,1.92-.71,3.19-.71,6.4-.2,9.61.17,1.07.47,2.13,1.2,2.99.42.5.96.78,1.62.59.65-.19.89-.73.98-1.35.03-.22.07-.44.07-.66,0-3.36,0-6.72,0-10.35Z"/><path class="cls-1" d="m104.36,2.77c.14.05.27.11.41.14,1.7.35,2.74,1.57,2.67,3.16-.07,1.49-1.3,2.72-2.96,2.85-.69.06-1.42.03-2.09-.13-1.45-.35-2.38-1.61-2.33-2.98.05-1.41,1.06-2.55,2.56-2.89.18-.04.35-.1.52-.15.41,0,.82,0,1.22,0Z"/><path class="cls-1" d="m73.24,29.12c-1.62,0-3.21,0-4.8,0-1.95,0-3.89,0-5.84,0-.25,0-.61.12-.6-.34,0-.34-.14-.73.42-.87.74-.18.93-.44.93-1.22,0-3.66.03-7.32-.02-10.97,0-.7-.21-1.42-.42-2.1-.18-.56-.63-.89-1.26-.93-.67-.04-1.28.14-1.54.76-.28.66-.54,1.4-.56,2.11-.06,3.6-.03,7.2-.02,10.81,0,.72.25,1.31,1,1.55.54.17.31.61.3.93,0,.09-.35.25-.53.25-3.39.02-6.78,0-10.17.02-.41,0-.62-.07-.6-.54.01-.41.05-.7.57-.63.18.02.37,0,.55-.01.68-.07.93-.31.94-.99.03-2.4.06-4.8.06-7.2,0-2.27-.03-4.54-.06-6.81,0-.25-.06-.51-.12-.76-.13-.53-.42-.88-1.03-.92-.3-.02-.68-.04-.69-.54-.01-.63.07-.75.74-.82,1.01-.1,2.02-.22,3.03-.32,1.6-.16,3.2-.3,4.8-.49.43-.05.57.11.62.48.09.66.17,1.32.26,1.97.08.61.23.67.73.34.72-.48,1.42-1.01,2.18-1.42,1.96-1.07,4.02-1.09,6.06-.31,1.73.66,2.6,2.07,2.91,3.83.1.6.13,1.21.13,1.82.01,3.4,0,6.8,0,10.2,0,.24,0,.48.04.72.13.89.38,1.13,1.27,1.24.89.12.93.17.71,1.18Z"/><path class="cls-1" d="m46.29,20.11c0,1.53-.02,3.07.01,4.6.02.68.1,1.36.24,2.02.14.66.55,1.13,1.27,1.21.34.04.38.23.36.49-.02.29.12.69-.33.77-2.37.45-4.74.67-7.04-.27-.64-.26-1.2-.77-1.75-1.23-.28-.24-.47-.29-.76-.05-.44.36-.89.72-1.36,1.05-2.61,1.85-7.78.93-8.98-3.18-.34-1.16-.34-2.34-.04-3.5.35-1.33,1.27-2.23,2.51-2.7,1.46-.56,2.99-.94,4.47-1.45,1.06-.37,2.1-.81,3.15-1.22.43-.17.61-.48.58-.95-.08-1.19-.11-2.39-.18-3.59-.01-.2-.09-.39-.17-.58-.46-1.17-1.48-1.42-2.42-.57-.79.72-1.19,1.68-1.54,2.65-.16.45-.27.92-.38,1.38-.38,1.67-.89,2.09-2.61,2.03-.53-.02-1.07-.13-1.57-.3-1.48-.52-2.04-1.76-1.48-3.24.45-1.19,1.33-2.03,2.37-2.7,1.49-.96,3.16-1.43,4.9-1.64,2-.25,3.99-.19,5.95.32,2.32.61,4.05,1.88,4.6,4.36.11.5.16,1.02.17,1.53.02,1.59,0,3.18,0,4.76Zm-7.74-2.29c-1.76.82-3.1,1.88-3.21,3.97-.08,1.5-.04,2.95.77,4.27.41.66,1.06.95,1.64.76.65-.21.81-.78.82-1.37.03-2.45.04-4.9.05-7.36,0-.07-.03-.14-.07-.27Z"/><path class="cls-1" d="m25.6,8.96c0,.92,0,1.85,0,2.77,0,.24.11.59-.31.57-.38-.02-.85.24-1.09-.35-.41-.97-.8-1.95-1.33-2.85-.47-.78-1.05-1.53-1.73-2.14-2.06-1.87-4.97-1.48-6.56.79-.97,1.38-1.43,2.95-1.71,4.57-.59,3.53-.59,7.06.31,10.54.27,1.05.71,2.11,1.3,3.03,1.82,2.84,5.67,3,7.7.3.83-1.11,1.37-2.43,2.04-3.66.15-.27.25-.58.37-.86.23-.54.68-.77,1.23-.55.13.05.23.35.22.53-.05.92-.14,1.84-.22,2.76-.1,1.06-.22,2.13-.29,3.19-.02.38-.19.55-.5.7-1.44.67-2.96,1.07-4.52,1.25-2.36.26-4.73.26-7.09-.08-4.59-.64-7.58-3.27-8.7-7.75-.79-3.17-.79-6.38.1-9.52,1.2-4.24,4.03-6.86,8.37-7.69,3.74-.71,7.48-.51,11.14.6,1.29.39,1.29.42,1.29,1.74,0,.7,0,1.4,0,2.11Z"/><path class="cls-1" d="m107.89,9.74v.71c0,5.13,0,10.27,0,15.4,0,.18,0,.37,0,.55.03,1.12.38,1.48,1.5,1.55.53.03.84.55.57,1.01-.05.08-.21.15-.32.15-3.94,0-7.89,0-11.9,0-.02-.26-.03-.49-.04-.72-.02-.3.1-.46.42-.44.06,0,.11,0,.17,0,1.15-.07,1.51-.44,1.52-1.58.01-1.63,0-3.25,0-4.88,0-2.64,0-5.28,0-7.92,0-1.21-.16-1.43-1.36-1.65-.45-.08-.53-.33-.53-.74,0-.43.19-.53.56-.57,1.67-.16,3.35-.34,5.02-.51,1.32-.13,2.65-.25,3.98-.38.11,0,.22,0,.41,0Z"/></g></svg>