<?xml version="1.0" encoding="UTF-8"?><svg id="Layer_1" xmlns="http://www.w3.org/2000/svg" viewBox="0 0 137.55 32.49"><defs><style>.cls-1{fill:#fff;stroke-width:0px;}</style></defs><path class="cls-1" d="m48.04,31.82c-.16-.49-.38-1.1-.66-1.84h-4.1l-.64,1.84h-3.23l3.6-9.34h4.73l3.63,9.34h-3.33Zm-1.39-3.85c-.33-.9-.66-1.8-1-2.7l-.31-.84c-.3.78-.74,1.96-1.32,3.54h2.64Z"/><path class="cls-1" d="m62.39,25.59c0,.75-.18,1.38-.55,1.89-.36.51-.98.89-1.86,1.12.1.14.18.24.22.32l2.08,2.89h-3.5c-.38-.7-.97-1.7-1.79-2.98h-1.89v2.98h-3.04c.07-1.66.1-3.22.1-4.67s-.03-3.01-.1-4.67h3.04s2.64.01,2.64.01c1.73,0,2.94.28,3.63.84.69.56,1.03,1.31,1.03,2.26Zm-7.29-.63v1.47h1.74c.73,0,1.28-.02,1.65-.06.38-.05.64-.13.78-.23.15-.1.22-.25.22-.45s-.07-.33-.21-.44c-.14-.1-.39-.18-.77-.22-.38-.04-.93-.06-1.67-.06h-1.74Z"/><path class="cls-1" d="m66.45,29.46c3.26-.02,5.62-.06,7.09-.14-.06.35-.1.72-.12,1.09,0,.37-.01.84-.01,1.4h-9.99c.07-1.66.1-3.22.1-4.67s-.03-3.01-.1-4.67h9.99v2.33h-6.96v1.23c.41,0,1.02.01,1.83.01,1.36,0,2.77-.03,4.23-.08v2.21c-1.46-.05-2.87-.08-4.23-.08-.81,0-1.41,0-1.83.01v1.34Z"/><path class="cls-1" d="m85.36,22.49c-.06,1.45-.09,3-.09,4.66s.03,3.22.09,4.67h-4.6l-3.11-7.02.23,7.02h-3.31c.07-1.66.1-3.22.1-4.67s-.03-2.99-.1-4.66h4.73l3.13,7.22-.22-7.22h3.15Z"/><path class="cls-1" d="m94.5,31.82c-.16-.49-.38-1.1-.66-1.84h-4.1l-.64,1.84h-3.23l3.6-9.34h4.73l3.63,9.34h-3.33Zm-1.39-3.85c-.33-.9-.66-1.8-1-2.7l-.31-.84c-.3.78-.74,1.96-1.32,3.54h2.64Z"/><path class="cls-1" d="m40.96,3.11h2.25v14.12h9.53v1.04h-11.78V3.11Z"/><path class="cls-1" d="m56.12,6.34c-.43,0-.79-.12-1.06-.37-.27-.25-.41-.57-.41-.97s.14-.73.41-.97c.27-.25.63-.37,1.06-.37s.79.12,1.06.37c.27.25.41.57.41.97s-.14.73-.41.97c-.27.25-.63.37-1.06.37Zm-1,1.32h1.99v10.61h-1.99V7.66Z"/><path class="cls-1" d="m61.61,8.55h-2.19l.26-.89h1.93v-1.15c0-.95.27-1.68.82-2.19.55-.51,1.35-.76,2.4-.76.78,0,1.42.13,1.91.39l-.28.91c-.3-.27-.69-.41-1.15-.41-.53,0-.95.17-1.26.5-.3.32-.45.77-.45,1.34v1.36h2.95l-.24.89h-2.71v9.73h-1.99v-9.73Z"/><path class="cls-1" d="m72.67,17.61c.98,0,1.81-.24,2.47-.71.68-.48,1.11-1.13,1.3-1.95h1.62c-.27,1.11-.9,1.99-1.88,2.62-.98.62-2.18.93-3.6.93-1.18,0-2.22-.22-3.12-.67-.88-.45-1.57-1.08-2.06-1.91-.48-.84-.71-1.81-.71-2.9s.24-2.11.71-2.95c.48-.84,1.16-1.48,2.04-1.93.9-.46,1.93-.69,3.1-.69,1.76,0,3.13.48,4.12,1.43,1,.95,1.52,2.3,1.56,4.03h-9.53v.11c0,1.43.35,2.56,1.04,3.38.69.81,1.68,1.21,2.95,1.21Zm-.09-9.27c-1.08,0-1.96.32-2.62.97-.66.64-1.07,1.54-1.21,2.71h7.58c-.16-1.18-.56-2.09-1.21-2.73-.64-.64-1.48-.95-2.53-.95Z"/><path class="cls-1" d="m80.86,3.11h7.06c1.82,0,3.26.32,4.33.95,1.07.64,1.6,1.5,1.6,2.6,0,.94-.38,1.75-1.15,2.43-.77.66-1.77,1.09-3.01,1.28,1.65.16,2.9.54,3.77,1.15.87.59,1.3,1.49,1.3,2.69,0,1.31-.54,2.33-1.62,3.03-1.08.69-2.65,1.04-4.7,1.04h-7.58V3.11Zm6.24,6.78c1.46,0,2.58-.26,3.36-.78.78-.53,1.17-1.31,1.17-2.32,0-.9-.37-1.56-1.1-1.99-.74-.43-1.86-.65-3.36-.65h-4.05v5.74h3.99Zm1.56,7.34c1.21,0,2.16-.27,2.84-.82.68-.55,1.02-1.32,1.02-2.32,0-1.05-.47-1.84-1.41-2.36-.92-.53-2.3-.8-4.14-.8h-3.86v6.3h5.55Z"/><path class="cls-1" d="m101.03,18.49c-1.4,0-2.47-.28-3.21-.84-.72-.56-1.08-1.36-1.08-2.4,0-1.11.44-1.96,1.32-2.53.88-.59,2.17-.89,3.86-.89h3.16v-.78c0-.88-.27-1.55-.8-2.01-.53-.46-1.31-.69-2.32-.69-.95,0-1.72.22-2.3.67-.58.43-.92,1.05-1.02,1.86h-1.56c.14-1.1.65-1.94,1.52-2.53.87-.59,2.02-.89,3.47-.89,1.62,0,2.85.33,3.7,1,.85.65,1.28,1.6,1.28,2.84v3.51c0,1.24.11,2.4.32,3.49h-1.86c-.16-.65-.26-1.27-.3-1.86-.87,1.39-2.26,2.08-4.18,2.08Zm.5-.84c.66,0,1.26-.15,1.8-.45.55-.32.97-.74,1.28-1.26.32-.52.48-1.1.48-1.73v-1.49h-2.62c-1.27,0-2.22.21-2.84.63-.61.4-.91,1.03-.91,1.88,0,.79.24,1.4.71,1.82.48.4,1.18.61,2.1.61Z"/><path class="cls-1" d="m110.26,7.66h1.99v1.86c.35-.64.88-1.14,1.6-1.52.74-.38,1.56-.56,2.47-.56,1.4,0,2.51.37,3.31,1.1.81.72,1.21,1.7,1.21,2.95v6.78h-1.99v-7c0-.94-.26-1.66-.78-2.17-.52-.52-1.26-.78-2.21-.78-1.1,0-1.98.36-2.64,1.08-.65.71-.97,1.65-.97,2.82v6.04h-1.99V7.66Z"/><path class="cls-1" d="m132.1,18.28l-4.55-5.74-1.91,1.67v4.07h-1.99V3.48h1.99v9.29l5.96-5.11h1.54l-4.31,3.75,5.44,6.87h-2.17Z"/><path class="cls-1" d="m0,13.82c.11-1.1.29-2.19.54-3.29.1-.42.51-.86,1.02-1.12,3.5-1.74,6.86-3.74,10.24-5.71C14.35,2.21,16.76.03,19.87,0c3.11-.03,6.12,1.34,8.88,2.67.56.27,1.26.97,1.53,1.53.23.47.06.72-.38.65C22.34,3.33,12.17,10.87,1.67,14.69c-.85.31-1.74-.16-1.67-.87h0Zm21.72,18.66c2.34-.48,4.69-1.27,7.03-2.4.56-.27,1.26-.97,1.53-1.53.37-.78.71-1.55,1.01-2.33.27-.66-.31-.93-1.1-.56-2.92,1.39-5.8,2.95-8.5,4.47-1.19.66-1.08,2.57.03,2.35h0ZM7.18,1.46c-.95.35-1.9.75-2.84,1.2-.56.28-1.26.97-1.53,1.53-.19.39-.36.77-.53,1.16-.32.71.31.93,1.14.43,1.2-.73,2.37-1.48,3.52-2.23,1.22-.79,1.34-2.51.25-2.1ZM0,19c.11,1.1.3,2.19.55,3.29.17.71,1.17,1.42,1.89,1.31,8.84-1.41,19.85-9.01,29.63-10.03.56-.07.92-.44.85-.91-.16-1.12-.41-2.25-.72-3.37-.19-.66-1.09-1.36-1.79-1.38-8.67-.33-19.55,7.5-29.68,10.18-.49.13-.79.49-.75.91h0Zm31.58-2.21c-10.28,2.13-21.21,9.89-28.96,9.98-.38,0-.52.27-.33.69,1.14,2.58,5,4.71,7.81,4.45,1.63-.15,3.25-1.18,4.73-1.83,1.93-.85,3.81-1.82,5.71-2.76,3.63-1.8,7.27-3.62,11.07-5.04.58-.21,1.07-.69,1.15-1.16.21-1.12.35-2.25.41-3.37.04-.66-.76-1.15-1.59-.97h0Z"/><path class="cls-1" d="m132.44,3.66h2.11v.39h-.81v2h-.49v-2h-.81v-.39Zm5.11,0v2.39h-.53v-1.48l-.8,1.52h-.21l-.8-1.49v1.46h-.38v-2.39h.49l.88,1.65.87-1.65h.48Z"/></svg>