<?xml version="1.0" encoding="UTF-8"?><svg id="Layer_1" xmlns="http://www.w3.org/2000/svg" viewBox="0 0 137.55 32.49"><defs><style>.cls-1{fill:#fff;stroke-width:0px;}</style></defs><path class="cls-1" d="m25.89,6.06c.49-1.39,1.62-2.05,3.02-2.34,3.85-.79,7.78-.26,11.66-.15,2.17.06,3.18-.45,4.06,2.04.35,1,.5,2.12.18,3.14-.74,2.37-2.36,2.31-4.4,2.45-.66.05-1.02.07-1.07.07.27,0,1.2,9.06,1.21,9.79.01,2.4.93,6.82-2.46,7.32-2.45.37-5.67-.38-5.42-3.33.1-1.14-.19-13.64-.22-13.7-.22-.42-3.89-.71-4.43-.89-1.82-.6-2.75-2.38-2.18-4.25.02-.06.04-.11.06-.17h0Z"/><path class="cls-1" d="m91.17,22.08c-1.03-1.29-2.51-2.52-3.32-3.94.11.18,2.77-1.52,3.1-1.8,4.76-4.07,1.29-11.18-3.95-12.55-1.93-.51-4.68-1.01-6.58-.24-1.47.6-3.16,1.35-4.14,2.67-.98,1.32-1.13,3.14-1.2,4.73-.07,1.81-.2,3.62-.23,5.43-.04,1.82,0,3.64.1,5.46.09,1.58-.1,4.01.56,5.46.87,1.91,4.15,1.7,5.51.56,1.29-1.09,1.4-3.07,1.34-4.64-.02-.46.01-3.03-.3-3.17.02.01.04.02.06.03.44.21,1.06,2,1.32,2.49,1.41,2.66,3.63,5.74,7.01,5.92,1.49.08,2.89-.93,2.77-2.51-.11-1.44-1.19-2.81-2.06-3.9h0Zm-6.89-8.8c-.17.05-1.1.24-1.69.35-.26.05-.51-.14-.52-.41,0-.13-.01-.27-.01-.38,0-1.1-.09-2.21-.12-3.53,0-.21.12-.42.32-.5.35-.14.83-.21,1.09-.25.58-.09,1.18.06,1.7.34,1.85.99,1.02,3.85-.77,4.37h0Z"/><path class="cls-1" d="m111.38,22.14c-1.59-1.61-4.78-.41-6.72-.35-.55.02-1.13-.02-1.62-.26-.88-.44-1.19-1.42-1.19-2.34v-.47c0-.35,2.76-.03,3.05-.05,1.48-.1,3.58-1.47,4.11-2.88,1.38-3.6-5.33-2.05-6.73-2.52-.09-.03-.17-.07-.26-.11-.03-.02-.05-.03-.08-.05l-.06-.84c0-.77.06-1.49.74-1.97.44-.31.98-.45,1.51-.53,1.77-.28,3.62.13,5.38-.3,2.12-.52,2.72-2.89,1.17-4.55-2.13-2.29-5.78-1.93-8.56-1.32-1.28.28-2.55.71-3.61,1.47-1.69,1.21-2.73,3.15-3.23,5.17-.55,2.16-.34,4.35-.42,6.54-.12,3.3-.21,7.35,2.54,9.69,2.8,2.38,7.97,2.76,11.28,1.38,1.95-.82,4.25-4.15,2.71-5.7h0Z"/><path class="cls-1" d="m53.95,8.12c.6,6.54.14,17.3,9.3,13.61,2.44-1.79,2.32-5.59,2.45-8.37.1-2.04.35-4.75.6-8.88.03-.47-.53-.73-.86-.39h0c-.56.6-.99,1.5-1.28,2.71-.74,3.14-.59,3.37-.59,6.57,0,2.03.55,5.61-1.75,6.61-.93.4-2.09.55-2.96-.05s-1.42-1.49-1.77-2.44c-.56-1.54-.59-2.68-.71-4.3-.09-1.28-.3-2.5-.26-3.79.04-1.29-.01-2.63-.27-3.9-.2-1-.55-2-1.27-2.73-.32-.33-.88-.05-.86.41.08,1.59.25,3.5.22,4.95h0Z"/><path class="cls-1" d="m64.47,25.57c3.82-1.87,4.39-6.92,4.67-10.41.32-3.71.23-5.43.17-8.8-.07-.4-.07-.9-.05-1.44.02-.59-.31-1.09-.8-1.32-.29-.14-.62.1-.62.41-.02,4.6-.36,7.16-.69,10.96-.17,4.31-1.49,9.9-6.78,9.35-8.78-.49-7.77-9.64-7.9-16.58,0-.46-.04-.92-.07-1.38-.06-.83-.03-2.65-.1-4.05h-.02c-.88.02-1.57.76-1.57,1.64,0,.75-.02,1.5-.11,2.24-.26,7.08-.51,10.84,2.44,16.24,1.93,3.66,7.73,4.92,11.43,3.14h0Z"/><path class="cls-1" d="m71.73,6.25c-.27-.61-1.19-.37-1.16.29.1,2.13.04,4.53-.01,6.21-.42,5.56.17,10.52-5.6,14.03-3.34,1.72-10.03,1.14-12.34-1.36-3.88-4.07-4.11-7.78-3.7-13.62.18-2.13.18-5.24.29-7.46h0c.02-.45-.48-.69-.81-.39-.25.23-.47.48-.64.73-.47.69-.75,1.38-.84,2.06-.21,1.3-.31,3.11-.31,5.44,0,4.27-.05,5.85,1.26,9.96.71,2.23,1.91,4.34,3.71,5.84,3.4,2.83,11.8,2.92,15.44.5,3.77-2.51,4.99-6.88,5.61-11.23.63-4.39.94-6.82-.89-10.96,0,0,0-.01,0-.02h0Z"/></svg>