<svg id="Layer_1" xmlns="http://www.w3.org/2000/svg" viewBox="0 0 115.02 116.16"><defs><style>.cls-1{fill:none;stroke:#000;stroke-linecap:round;stroke-linejoin:round;stroke-width:3px}</style></defs><path class="cls-1" d="M75.76 17.14c13.14 5.87 23.22 17.95 25.89 33.19 4.28 24.38-12.02 47.62-36.4 51.9M39.25 99.03c-13.14-5.87-23.22-17.95-25.89-33.19-4.29-24.38 12.01-47.62 36.39-51.9"/><path class="cls-1" d="m57.94 50.31 9.85-45.24-31.67 58.49h21.51L47.08 111.1l31.8-60.79H57.94z"/><path class="cls-1" d="M56.46 25.99c-17.64.57-31.54 15.29-31.06 32.96.35 12.93 8.29 23.87 19.44 28.66M58.02 90.19h.34c17.73-.48 31.72-15.24 31.24-32.96-.32-11.83-7-22-16.68-27.31-.93-.51-1.89-.98-2.88-1.4"/></svg>