<svg id="Layer_1" xmlns="http://www.w3.org/2000/svg" viewBox="0 0 115.02 116.16"><defs><style>.cls-1{fill:none;stroke:#000;stroke-linecap:round;stroke-linejoin:round;stroke-width:3px}</style></defs><path class="cls-1" d="M21.04 23.73H7.3v-6.87c0-3.79 3.08-6.87 6.87-6.87s6.87 3.08 6.87 6.87V99.3c0 3.79 3.08 6.87 6.87 6.87m0 0c3.79 0 6.87-3.08 6.87-6.87v-6.87h72.93v6.87c0 3.79-3.08 6.87-6.87 6.87H27.91z"/><path class="cls-1" d="M14.17 9.99h72.82c3.79 0 6.87 3.08 6.87 6.87v75.57M34.78 37.47h45.39M34.78 51.21h45.39M34.78 64.95h45.39M55.42 78.69h24.76"/></svg>