<svg id="Layer_1" xmlns="http://www.w3.org/2000/svg" viewBox="0 0 115.02 116.16"><defs><style>.cls-1{fill:none;stroke:#000;stroke-linecap:round;stroke-linejoin:round;stroke-width:3px}</style></defs><path class="cls-1" d="M93.96 23.18h13.96V16.2c0-3.86-3.13-6.98-6.98-6.98s-6.98 3.13-6.98 6.98v83.76a6.98 6.98 0 0 1-6.98 6.98m0 0A6.98 6.98 0 0 1 80 99.96v-6.98H7.09v6.98a6.98 6.98 0 0 0 6.98 6.98h72.91z"/><path class="cls-1" d="M100.94 9.22H28.13a6.98 6.98 0 0 0-6.98 6.98v76.78"/><path class="cls-1" d="M47.91 69.6H33.67v14.24h14.24V69.6zM55.84 81.04h25.99M55.84 71.61h14.49M47.91 45.86H33.67V60.1h14.24V45.86zM55.84 57.31h25.99M55.84 47.87h14.49M47.91 22.13H33.67v14.24h14.24V22.13zM55.84 33.58h25.99M55.84 24.14h14.49"/></svg>