<?xml version="1.0" encoding="UTF-8"?><svg id="Layer_1" xmlns="http://www.w3.org/2000/svg" viewBox="0 0 115.29 112.95"><defs><style>.cls-1{stroke-miterlimit:10;}.cls-1,.cls-2{fill:none;stroke:#040404;stroke-width:3px;}.cls-2{stroke-linecap:round;stroke-linejoin:round;}</style></defs><path class="cls-1" d="m49.43,103.36l-6.86-9.48c-1.32-1.83-4.25-3.24-6.51-3.14l-11.69.54c-7.69.36-12.3-5.42-10.24-12.84l3.13-11.28c.6-2.18-.12-5.35-1.61-7.05l-7.71-8.8c-5.07-5.79-3.43-13,3.65-16.01l10.77-4.58c2.08-.88,4.11-3.43,4.51-5.65l2.07-11.52c1.36-7.58,8.02-10.78,14.8-7.13l10.3,5.56c1.99,1.07,5.24,1.07,7.23,0l10.3-5.56c6.77-3.66,13.43-.45,14.8,7.13l2.07,11.52c.4,2.22,2.43,4.77,4.51,5.65l10.77,4.58c7.08,3.02,8.73,10.22,3.65,16.01l-7.71,8.8c-1.49,1.7-2.21,4.87-1.61,7.05l3.13,11.28c2.06,7.42-2.55,13.2-10.24,12.84l-11.69-.54c-2.26-.1-5.19,1.31-6.51,3.14l-6.86,9.48c-4.52,6.24-11.91,6.24-16.42,0Z"/><ellipse class="cls-2" cx="57.65" cy="53.94" rx="28.31" ry="27.71"/></svg>