<svg id="Layer_1" xmlns="http://www.w3.org/2000/svg" viewBox="0 0 115.02 116.16"><defs><style>.cls-1{fill:none;stroke:#000;stroke-linecap:round;stroke-linejoin:round;stroke-width:3px}</style></defs><path class="cls-1" d="M5.89 62.91c1.49-2.16 2.44-5.42 2.44-9.08 0-2-.28-3.7-.78-5.35"/><path class="cls-1" d="M41.33 30.97c-3.45-4.43-8.45-7.61-13.74-8.75-.95-.21-2.06-.46-3.01-.3-.75.13-1.41.52-1.81 1.42-.6 1.32-.16 3.12.3 4.39.92 2.57 2.44 5.32 3.52 7.82a38.774 38.774 0 0 0-7.05 9.05c-1.3 2.3-3.64 3.66-6.12 3.66h-4.4c-3.32 0-5.79 3.3-5.11 6.81l.47 2.47c1.73 8.94 6.86 16.75 14.22 21.19.46.28.92.55 1.4.82.32.18.64.35.97.53 2.77 1.48 4.67 4.38 5.09 7.71l.83 6.51h9.15l2.21-5.82c.37-.97 1.32-1.51 2.27-1.3 11.37 2.44 23.45 2.43 34.11-.66.99-.3 1.98-.61 2.94-.97 1.63-.58 3.39.35 4.03 2.08l2.44 6.67h9.72l.06-2.04c.26-8.79 2.39-17.32 5.77-25.32.33-.78.63-1.59.9-2.42 4.94-18.97-8.58-33.65-26.76-38.16-9.65-2.42-19.94-3.14-29.59-.56-1.99.54-3.92 1.22-5.78 2.02"/><path class="cls-1" d="M57.08 30.17c5.04-.79 10.33-.54 15.41 2.03M99.27 44.38c2.32-.88 4.27-2.57 5.19-5.05 1.45-3.63.78-10.01-3.58-10.6-3.65-.12-3.34 4.89-.72 6.47 5.3 4.09 9.63.06 11.05-6.04M28.29 45.15c3.03-3.4 7.12-1.77 9.16-.65"/></svg>