<svg id="Layer_1" xmlns="http://www.w3.org/2000/svg" viewBox="0 0 115.02 116.16"><defs><style>.cls-1{fill:none;stroke:#000;stroke-linecap:round;stroke-linejoin:round;stroke-width:3px}</style></defs><path class="cls-1" d="M57.5 92.92c19.24 0 34.84-15.6 34.84-34.84S76.74 23.24 57.5 23.24s-34.84 15.6-34.84 34.84 15.6 34.84 34.84 34.84z"/><path class="cls-1" d="M34.7 17.01c6.75-3.76 14.53-5.9 22.8-5.9 25.94 0 46.97 21.03 46.97 46.97 0 14.21-6.31 26.95-16.29 35.56M80.18 99.23a46.784 46.784 0 0 1-22.68 5.83c-25.94 0-46.97-21.04-46.97-46.98 0-14.21 6.31-26.95 16.29-35.56M57.5 23.24v5.8M57.5 87.12v5.81M92.35 58.08h-5.81M28.46 58.08h-5.8"/><path class="cls-1" d="M57.5 42.26v15.82h21.13M17.58 22.41l9.16.02-.02 9.16M97.43 93.75h-9.16l.01-9.17"/></svg>