<svg id="Layer_1" xmlns="http://www.w3.org/2000/svg" viewBox="0 0 115.02 116.16"><defs><style>.cls-1{fill:none;stroke:#000;stroke-linecap:round;stroke-linejoin:round;stroke-width:3px}</style></defs><path class="cls-1" d="M88.8 101.77a71.324 71.324 0 0 1 .59-30.4l4.48-18.76c.22-.93.5-1.85.75-2.77C99.53 31.9 84.11 14.4 62.88 14.4h-.07c-17.45 0-31.59 12.46-31.59 27.82 0 3.15-.82 6.25-2.37 8.99l-9.37 16.55h11.68v16.88c0 2.59 2.39 4.7 5.34 4.7h10.38a5.16 5.16 0 0 1 5.16 5.16v7.27"/><path class="cls-1" d="M60.15 31.25c0-4.09-3.03-7.4-6.78-7.4s-6.78 3.31-6.78 7.4"/><path class="cls-1" d="M53.13 31.66c-1-.74-2.21-1.16-3.51-1.16-3.49 0-6.31 3.09-6.31 6.89s2.83 6.89 6.31 6.89h31.32c3.1 0 5.62-2.75 5.62-6.14s-2.37-5.98-5.35-6.13c-.66-3.14-3.24-5.48-6.32-5.48-2.69 0-5.01 1.76-5.99 4.3.25-.65.39-1.36.39-2.11 0-2.99-2.22-5.41-4.95-5.41-2.49 0-4.55 2-4.9 4.61"/><path class="cls-1" d="M75.3 44.27c2.2 0 3.98-1.95 3.98-4.35M59.69 44.27c3.1 0 5.62-2.75 5.62-6.14"/></svg>