<svg id="Layer_1" xmlns="http://www.w3.org/2000/svg" viewBox="0 0 115.02 116.16"><defs><style>.cls-2{fill:none;stroke:#000;stroke-width:3px;stroke-linecap:round;stroke-linejoin:round}</style></defs><path d="m52.9 67.56-3.85-5.31c-.74-1.03-2.39-1.82-3.65-1.76l-6.55.3c-4.31.2-6.9-3.04-5.74-7.2l1.75-6.32c.34-1.22-.07-3-.9-3.95l-4.32-4.93c-2.84-3.25-1.92-7.29 2.05-8.98l6.04-2.57c1.17-.5 2.3-1.92 2.53-3.17l1.16-6.46c.76-4.25 4.5-6.05 8.3-4l5.77 3.12c1.11.6 2.94.6 4.05 0l5.77-3.12c3.8-2.05 7.53-.25 8.3 4l1.16 6.46c.22 1.25 1.36 2.67 2.53 3.17l6.04 2.57c3.97 1.69 4.89 5.73 2.05 8.98l-4.32 4.93c-.83.95-1.24 2.73-.9 3.95l1.75 6.32c1.15 4.16-1.43 7.4-5.74 7.2l-6.55-.3c-1.26-.06-2.91.73-3.65 1.76l-3.85 5.31c-2.53 3.5-6.68 3.5-9.21 0h-.02z" style="fill:none;stroke:#000;stroke-width:3px;stroke-miterlimit:10"/><path class="cls-2" d="M57.51 55.39c8.76 0 15.87-6.96 15.87-15.54s-7.11-15.54-15.87-15.54-15.87 6.96-15.87 15.54 7.1 15.54 15.87 15.54z"/><path class="cls-2" d="M33.38 52.61 12.97 87.97c-.84 1.46.47 3.22 2.1 2.83l10.01-2.36a6.04 6.04 0 0 1 7.17 4.14l2.96 9.85c.48 1.61 2.66 1.87 3.5.41L57.5 70.3l18.79 32.54c.84 1.46 3.02 1.2 3.5-.41l2.96-9.85a6.032 6.032 0 0 1 7.17-4.14l10.01 2.36c1.64.39 2.95-1.37 2.1-2.83L81.62 52.62"/><path class="cls-2" d="m72.16 95.66 4.24-14.1a6.032 6.032 0 0 1 7.17-4.14L97.9 80.8M42.9 95.62l-4.24-14.1a6.032 6.032 0 0 0-7.17-4.14l-14.33 3.38M21.18 21.4 9.14 15.63M9.14 52.61l12-5.76M14.42 34.12H2.81M93.9 21.4l11.99-5.77M105.89 52.61l-11.95-5.76M100.64 34.12h11.56"/></svg>