<svg id="Layer_1" xmlns="http://www.w3.org/2000/svg" viewBox="0 0 115.02 116.16"><defs><style>.cls-1{fill:none;stroke:#000;stroke-linecap:round;stroke-linejoin:round;stroke-width:3px}</style></defs><path class="cls-1" d="M57.51 82.44c15.2 0 27.52-12.32 27.52-27.52S72.71 27.4 57.51 27.4 29.99 39.72 29.99 54.92s12.32 27.52 27.52 27.52zM57.51 27.4v4.58M57.51 77.86v4.58M85.03 54.92h-4.58M34.57 54.92h-4.58"/><path class="cls-1" d="M57.51 42.43v12.49h16.68M87.86 99.03l-8.9-2.18 2.18-8.9"/><path class="cls-1" d="M79.12 96.65c16.92-8.76 27.46-27.38 25.03-47.4-3.13-25.76-26.55-44.1-52.31-40.97-25.76 3.13-44.1 26.55-40.97 52.31 1.93 15.88 11.57 28.94 24.72 35.89"/><path class="cls-1" d="M65.19 93.09h-1.7c-2.04 0-3.7 1.66-3.7 3.7s1.66 3.7 3.7 3.7h1.7c2.04 0 3.7-1.66 3.7-3.7s-1.66-3.7-3.7-3.7zM65.54 100.5h-2.39c-2.13 0-3.86 1.73-3.86 3.86s1.73 3.86 3.86 3.86h2.39c2.13 0 3.86-1.73 3.86-3.86s-1.73-3.86-3.86-3.86zM52.06 108.08V93.47l-8.66 10.18h10.07"/></svg>