<?xml version="1.0" encoding="UTF-8"?><svg id="Layer_1" xmlns="http://www.w3.org/2000/svg" viewBox="0 0 115.02 116.16"><defs><style>.cls-1{fill:none;stroke:#000;stroke-linecap:round;stroke-linejoin:round;stroke-width:3px;}</style></defs><path class="cls-1" d="m44.59,95.04h-20.45c-.61,0-1.1-.49-1.1-1.1v-32.55c0-.61.49-1.1,1.1-1.1h20.45c2.99,0,5.96.56,8.74,1.65l10.46,4.09c2.79,1.09,5.75,1.65,8.74,1.65h18.35c.61,0,1.1.49,1.1,1.1v32.55c0,.61-.49,1.1-1.1,1.1h-18.35c-2.99,0-5.96-.56-8.74-1.65l-10.46-4.09c-2.79-1.09-5.75-1.65-8.74-1.65Z"/><path class="cls-1" d="m77.36,75.72h4.14c1.35,0,2.44,1.09,2.44,2.44v13.78c0,1.35-1.09,2.44-2.44,2.44h-8.96"/><path class="cls-1" d="m38.15,86.99h-4.63c-1.35,0-2.44-1.09-2.44-2.44v-13.78c0-1.35,1.09-2.44,2.44-2.44h9.46"/><circle class="cls-1" cx="57.51" cy="81.35" r="7.91"/><path class="cls-1" d="m44.59,48.49h-18.84c-.61,0-1.1-.49-1.1-1.1V14.83c0-.61.49-1.1,1.1-1.1h18.84c2.99,0,5.96.56,8.74,1.65l10.46,4.09c2.79,1.09,5.75,1.65,8.74,1.65h16.74c.61,0,1.1.49,1.1,1.1v32.55c0,.61-.49,1.1-1.1,1.1h-16.74c-2.99,0-5.96-.56-8.74-1.65l-10.46-4.09c-2.79-1.09-5.75-1.65-8.74-1.65Z"/><path class="cls-1" d="m75.75,29.17h4.14c1.35,0,2.44,1.09,2.44,2.44v13.78c0,1.35-1.09,2.44-2.44,2.44h-8.96"/><path class="cls-1" d="m39.76,40.44h-4.63c-1.35,0-2.44-1.09-2.44-2.44v-13.78c0-1.35,1.09-2.44,2.44-2.44h9.46"/><circle class="cls-1" cx="57.51" cy="34.81" r="7.91"/></svg>