<?xml version="1.0" encoding="UTF-8"?>
<svg id="Layer_1" data-name="Layer 1" xmlns="http://www.w3.org/2000/svg" version="1.1" viewBox="0 0 792 605.2">
  <defs>
    <style>
      .cls-1 {
        stroke-width: 3.7px;
      }

      .cls-1, .cls-2 {
        fill: #fff;
        stroke: #fff;
        stroke-miterlimit: 10;
      }

      .cls-2 {
        stroke-width: 1.2px;
      }
    </style>
  </defs>
  <path class="cls-2" d="M397.8,451.6c-.6.3-1.1.8-1.3,1.3,0,0,0,0,0,0,.6-.3,1.1-.8,1.3-1.3,0,0,0,0,0,0Z"/>
  <path class="cls-2" d="M397.8,278.6c-.6.3-1.1.8-1.3,1.3,0,0,0,0,0,0,.6-.3,1.1-.8,1.3-1.3,0,0,0,0,0,0Z"/>
  <path class="cls-2" d="M744.5,497.8v3.7H48.3v-3.7h696.2Z"/>
  <path class="cls-1" d="M27.5,539.6v63h-2.5v-63H.9v-2.4h50.7v2.4h-24.1Z"/>
  <path class="cls-1" d="M91.4,602.6v-26.3h-35.4v26.3h-2.5v-52.3h2.5v23.6h35.4v-23.6h2.5v52.3h-2.5Z"/>
  <path class="cls-1" d="M110.8,550.2h33.9v2.4h-31.4v21.2h25.2v2.4h-25.2v23.8h31.9v2.4h-34.4v-52.3h0Z"/>
  <path class="cls-1" d="M199,537.2c14.7,0,23.5,6.1,23.5,19s-8.8,19-23.5,19h-14.4v27.5h-2.5v-65.4h16.9ZM199,572.7c13.6,0,20.9-5.6,20.9-16.5s-8.1-16.5-20.9-16.5h-14.4v33.1h14.4Z"/>
  <path class="cls-1" d="M233.7,550.2h2.5v52.3h-2.5v-52.3h0Z"/>
  <path class="cls-1" d="M257.5,585.6l-7.4,17h-2.7l23.1-52.3h2.3l23.1,52.3h-2.7l-7.5-17h-28.2,0ZM278.2,568.2c-4.4-10-6.4-15.1-6.4-15.2h-.2c0,0-2.3,5.7-6.8,15.9l-6.3,14.3h26.2l-6.5-15h0Z"/>
  <path class="cls-1" d="M309.7,552.7v22h23.7v2.4h-23.7v25.5h-2.5v-52.3h33.9v2.4h-31.4,0Z"/>
  <path class="cls-1" d="M355.7,552.7v22h23.7v2.4h-23.7v25.5h-2.5v-52.3h33.9v2.4h-31.4Z"/>
  <path class="cls-1" d="M399.3,550.2h33.9v2.4h-31.4v21.2h25.2v2.4h-25.2v23.8h31.9v2.4h-34.4v-52.3h0Z"/>
  <path class="cls-1" d="M470.6,537.2h2.5v63h37.7v2.4h-40.2v-65.4h0Z"/>
  <path class="cls-1" d="M541.9,549.2c15,0,27,11.5,27,27.3s-12.1,27.2-27,27.2-26.9-11.5-26.9-27.2,12-27.3,26.9-27.3ZM541.9,601.3c13.5,0,24.5-10.1,24.5-24.8s-10.9-24.9-24.5-24.9-24.4,10.1-24.4,24.9,10.8,24.8,24.4,24.8Z"/>
  <path class="cls-1" d="M621.3,581.9c0,14.2-6.5,21.8-20.5,21.8s-20.3-7.6-20.3-21.8v-31.7h2.5v32c0,12.5,5.5,19.1,17.8,19.1s17.8-6.5,17.8-19.1v-32h2.5v31.7h0Z"/>
  <path class="cls-1" d="M675.3,602.6l-35.6-48.7h0c0,0,.2,5.8.2,12.2v36.5h-2.5v-52.3h2.5l35.5,48.2h0c0,0-.2-5.7-.2-12v-36.3h2.5v52.3h-2.4,0Z"/>
  <path class="cls-1" d="M740.2,602.6c0-7.7,0-9.6,0-9.7h0c-2.4,3.1-9.2,10.8-22.3,10.8s-27.6-11.6-27.6-27.2,11.9-27.3,26.9-27.3,19.5,3.8,24.5,15.4l-2.4.7c-2.6-6-9.5-13.6-21.8-13.6s-24.7,10.1-24.7,24.9,10.6,24.8,24.8,24.8,20.1-7,22.6-12v-9.1h-17.4v-2.4h19.8v24.8h-2.4Z"/>
  <path class="cls-1" d="M757.6,550.2h33.9v2.4h-31.4v21.2h25.2v2.4h-25.2v23.8h31.9v2.4h-34.4v-52.3h0Z"/>
  <path class="cls-2" d="M472.4,51.4v1.1c0,0-.3,2.6-.3,2.6l-.2,2.3-.3,6.2-.2,5.2v3c0,0,0,2.1,0,2.1v1.8c0,.7,0,1.5,0,2.2,0,.7.2,1.4.3,2,.1.7.3,1.4.5,2.2l.5,2,1.1,3.5,1.5,4.2,1.6,4.4,1.2,4,1.3,3.7,1.5,3.7,1,2.5,1.2,2.7,1.1,2.1.8,1.4.7,1.4.6,1.2.7,1.4.8,1.5.7,1.5,1.1,2.8,1.1,2.3.7,1.7.7,1.6.9,1.6.7,1.5,1.1,2.2c.3.7.7,1.3,1,2,.4.7.9,1.4,1.4,2.1.3.5.7,1,1.1,1.6.4.6.6,1.2,1,1.9l1,1.6c.2.4.5.7.7,1,.2.4.4.8.6,1.1l.9,1.7.8,1.5.6,1c.2.3.4.7.6,1,.2.4.4.7.6,1.1l.8,1.5.7,1.2.5.9.4.8.5.9.4.7.4.6.4.6.4.5.3.5.2.4.2.4.2.4c0,.1.1.2.2.4,0,.1,0,.2.1.3,0,.2,0,.3,0,.5"/>
  <path class="cls-2" d="M356.6,493.1c1.6-2,3.3-4.1,4.9-6.1.5-.6,1.2-1.2,1.3-1.9.2-2.1-.2-4.3-.9-6.3,0,0,0-.1-.1-.2-.3-.7-.6-1.5-.7-2.3-.3-.6-.4-1.3-.3-1.9.2-2.2,2.4-3.4,4-4.7,4.6-3.8,10.4-5.4,16-7.2,1.9-.7,3.8-1.4,5.8-1.9,3.5-.3,7,0,10.5-.1,7.6,0,16.9,0,23.6,0,1.1-.1,2.1-.5,3.1-.8.7-.2,1.5-.3,2.1-.8,2.2-1.8,2.7-3.5,4.3-6.1,2.6-4.5,5.7-9.2,7.9-14.6,3.4-6.8,6.8-13.6,9.6-20.7,5.5-10.2,10.9-20.5,15.2-31.3,2.3-6.5,5.3-12.8,8-19.1,2.9-7.4,6.9-14.2,10.8-21.1,5.5-10.9,11.1-21.8,17.4-32.3,4.8-8.1,8.3-16.9,12.5-25.3,2.1-4.4,4.3-8.7,6.8-12.8,1.6-3.3,3.2-6.5,5.1-9.6,2.6-4.7,5.1-9.4,7.4-14.2,2.4-4.9,4.6-8.8,7.9-13-.1.3.3-.6.5-.9.7-.9,1.2-1.9,1.7-3,.1-.3.2-.6.4-.9.2-.4.3-.8.3-1.3,0-4.7.2-9.6-1.3-14.1-.9-3-2.1-5.8-3.3-9-.7-1-1.2-1.7-1.9-3.2-2.5-5.3-4.7-9.5-7.8-14.7-4.3-9.2-9-18.3-13.6-28.2-1.3-3.3-2.2-4.4-3.7-7.5-1.4-3.1-2.7-6.8-4-9.5-1.4-2.9-3.5-7.3-4.3-9-1.4-3-3.9-7-4.7-9.3-1.5-2.7-3.8-8-5.3-12-1.2-4-2.5-7.9-3.4-11.6-.5-3.9-.2-7.8-.3-11.6.1-6.6-.2-12,1.9-18.4.9-4.9,2.8-9.6,4.7-14.3,1.6-3.8,2.9-7.8,5-11.4,3.4-6.4,7.7-12.2,12.2-17.8,3.1-4.2,5.7-8.8,8.3-13.3-2,5.1-4.1,10.2-6.7,15-3.2,5.4-6.8,10.7-9.6,16.4-2.6,5-4.5,10.3-6.6,15.5-2.5,5.5-3.9,11.2-5.5,17-1.4,7.1-.9,14.9-1,23.3,0,3.8,1.9,7.3,2.7,11,2.9,9.3,8,17.4,11.5,25.1,1.4,2.8,2.8,5.6,4.2,9,1.2,2.9,2.4,6.2,3.3,7.8,2.7,5,5.8,11.9,8.5,17.7,2.3,4.4,6,12,7.9,16.2,2.1,3.7,5.6,9.7,8.1,15.2.3,1,.6.8,1.5,2.6,1.1,2.2,2.2,5.6,2.9,7.2,2.2,5.3,3.2,11,3,16.8.3,3-.5,5.6-2.2,8-2.9,4.5-5.3,7.1-7.5,11.9-1.7,3.1-3.1,6.3-4.7,9.4-2.1,4-4.4,7.8-6.5,11.7-1.8,4-4.1,7.6-6.1,11.4-2.8,5.3-5.3,10.8-7.8,16.3-4.3,9.7-9.7,18.8-15,28-3.2,5.9-6.2,11.9-9.2,17.9-2.5,4.8-5.5,9.5-7.8,14.4-2.7,5.2-4.7,10.7-7.1,16-2.2,4.7-3.9,9.6-5.9,14.4-4,9.8-9,19.2-14,28.5-3.2,8.4-7.6,16.3-11.3,24.5-2.2,4.7-5,8.3-7.2,12.6-1.1,2.1-1.8,3.2-3.6,4.7-1.4.7-2.9.9-4.4,1.4-1.7.3-3.5.1-5.2.2h-23.9c-2,0-4.5-.1-5.8.1-2.6.6-5.1,1.7-7.6,2.5-5.1,1.8-10.4,3.2-14.9,6.4-1.6,1.1-3.4,1.9-3.5,3.8.1.4.2.9.2,1.3h0c.2.4.5,1.2.5,1.5.5,1.5.7,3.2.6,4.8,0,.6,0,1.3-.2,1.9-.5.6-1.1,1.2-1.7,1.7-1.7,1.6-3.5,3.2-5.3,4.7-.8.8-1.6,1.6-2.5,2.3.8-.9,1.4-1.8,2.1-2.7h0Z"/>
  <path class="cls-2" d="M432.7,207.9c0,0,0,.1,0,.2,0,0,0,0,0-.2h0s0,0,0,0Z"/>
  <path class="cls-2" d="M288.8,473.3c3.6-5.9,6.8-10.3,10.4-15.8,1.6-2.5,3.4-5.1,5.5-7.8.8-1,1.5-2.4,2.7-3.1,1.4-.3,2.9-.7,4.2-1.4,2.4-.7,4.8-1.6,7.2-2.1,3-.4,5.9-1.2,8.9-1.8,2.6-.3,4.1-.3,6.9-.9,1.7-.8,3.5-.8,5.2-1.4,3.7-1.5,7.5-2.8,11.2-4.2,1.7-.4,3.4-.9,5.1-1.4,1.7-.4,3.5-.6,5.2-1.4,4.4-2,8.5-4.9,12-8.3,3.8-3.5,6.3-6.9,9.3-10.7,3-3.7,6.3-7.2,8.7-10.7,4.2-5.7,8.4-14.7,12.4-22.1,5.1-8.8,9.1-18.2,13.7-27.2,1.9-4,4.3-7.8,6.3-11.7,3.2-6.5,6.7-12.9,10.5-19.1,2.5-4.2,4.4-7.6,6.8-11.7,2.5-3.9,6.1-10.2,7.6-15.9,1.4-6.2,1.5-11.1,1.4-17.2,0-5.1,0-10.2,0-15.3-.2-1.9-1-3.7-1.3-5.5-2.6-8.5-4.5-16.6-7.3-24.6-.8-2-1.1-3.9-1.8-5.7-.6-2-1.8-3.7-2.4-5.7-1-2.3-2.4-5-3.8-7.4-1.4-3-2.3-5.1-4.4-9.5-1.3-2.8-2.5-4.9-3.6-8.2-1.1-2.6-1.6-4.9-2.7-6.9-11.6-20.3-24.6-37.1-37-55.3-3.2-5.3-8-10.7-10.5-15.2-3.2-4.8-5.9-10-8.6-15.1s0,0,0,0c-.6-1-1.2-1.9-1.8-2.9-1.5-2.2-2-3.8-3-5.5-2-3.4-4.1-6.7-6-10.2-1.9-3.8-3.9-8.1-5.5-10.7-5.2-9.2-10.9-18.2-15.5-27.7-2.3-4.1-4.4-8.3-6.4-12.5-1.4-2.8-3-5.6-3.9-8.6-2.1-5.2-1.1-11.3-4.6-16-.5-.7-1-1.3-1.5-2,1,1.1,2,2.2,2.8,3.4,1.4,1.9,2,4.3,2.4,6.6.6,2.7,1.3,5.8,2.2,8.2,1.2,3.8,2.9,6.2,4.7,9.6,2.7,5.8,5.4,9.9,8.4,16,4,7.8,8.6,14.9,13.2,23.1,1.8,3.1,4.8,9.2,5.6,10.8,2.1,3.7,6.3,10.3,7.4,12.8,4.2,6.9,7.7,14.1,10.9,19,3.1,5,6.9,9.5,10.2,14.8,8.3,12.3,18.4,25.9,26.1,37.8,4.4,7.1,9.4,13.8,13,21.4,2,4.4,2.9,8.4,4.9,12.2,0,0,.2.4.2.5.1.3.8,1.5,1.2,2.5.4.8.7,1.6,1,2.4h0s0,0,0,0c0,0,0,0,0,0,0,.2,0,.2,0,.2.6,1.6,1.7,3,2.1,4.6,1.6,3.3,2.9,5.4,4.4,8.8.6,1.8,1.5,3.4,2.2,5.1,1.1,3.1,2,6.3,3.1,9.4,2.1,6.1,4,13.8,6.2,21,.7,2.5,1.4,5,1.9,7.5.3,5.3,0,10.6.1,15.9.1,8.2-.2,16.6-3.6,24.1-2,4.2-4.3,8.1-6.3,11.2-3.2,6.1-6.7,11.5-10.1,17.5-2.9,5.1-5.3,10.4-8.2,15.5-3.3,5.8-6.2,11.9-9.2,17.9-3,7.2-6.8,14-10.6,20.7-2.7,5.2-5.2,10.6-8.4,15.6-2.8,4.7-6.7,9.1-10.8,14-2.8,3.4-5.1,6.7-8.5,10-3.9,3.9-8.4,7.3-13.5,9.5-1.5.7-3.1.8-4.7,1.2-2,.6-4,1.1-6,1.7-3.6,1.5-7.2,2.6-10.8,4.1-1.8.5-3.6.8-5.3,1.4-2.4.7-5.2.6-6.7.9-2.2.4-4.2,1.2-6.4,1.4-3.3.4-6.5,1.6-9.7,2.6-1.3.8-2.8,1-4.1,1.4-1.4,1-2.2,2.6-3.2,3.9-2.1,2.7-3.4,4.6-5.4,7.4-3.6,5.2-7.3,9.3-11.1,14.5-4.1,5.7-7.3,12.2-12.2,17.3,4.4-6.5,7-14,10.9-20.8h0Z"/>
  <path class="cls-2" d="M297.9,360c0-.3.1-.6.3-.9,1.3-1.4,3.8-1.1,4.9-1.4,1.2-.3,2.5-.4,3.6-1,1.2-.7,2-1.7,2.8-2.7,1.9-2.3,2.7-6.6,3.1-10.1.1-2.1.6-4.1,1.2-6.1.2-1.4.9-2.6,1.6-3.8.9-1.8,1.7-2.5,2.9-4,.8-1.1,2.5-3.4,3.7-5.1,3-4,5.1-7.5,8.2-11.6,2.4-3.2,4.9-6.3,7.2-9.5,2.3-2.9,4.8-5.8,6.9-8.9,3.4-4.1,7.1-8.1,10.5-12.3,4.4-5.1,9.5-9.5,14.4-14,3-2.1,5.3-5,8.1-7.4,4.5-4.2,8.5-8.1,13.2-12.2,1.7-1.6,3.7-3,5.5-4.5,1.9-2.2,4.4-3.6,6.5-5.5,3.7-3.1,7.9-5.6,11.7-8.6.7-.4,1.4-.8,2-1.4.3-.3.7-.5,1-.7-.2.2-.5.3-.7.6-1.7,2-3.6,3.7-5.3,5.7-2.4,2.4-5,4.6-7.3,7.2-1.4,1.6-3.1,3-4.6,4.6-.8.9-1.4,2-2.4,2.7-5.4,5-10.5,10.4-15.9,15.3-2.8,2.4-5.3,5.1-8,7.5-2.3,1.6-4.2,3.7-6.2,5.6-2.1,2-4.3,3.9-6.3,6-4.3,4.5-8,9.5-12.2,14.1-2.9,3.6-5.6,7.4-8.6,10.9-2.7,3.7-5.5,7.2-8.3,10.9-3.4,4.9-7.8,11.5-11.6,16.2-.6.7-2,2.9-2.9,4.6-.4,1.3-.7,2.6-1,3.9-.8,3.7-.7,7.7-2.2,11.2-.8,2.6-2.9,5.3-5.5,6.2-2.6.8-4.6.5-6.9,1.5l-.3.2c-.1,0-.2.2-.3.3,0,.1,0,.2,0,.2,0,1.4,0,2.8,0,4.3.4,3.5.6,6.8,1,9.7.5.2,1.1.4,1.4.6,1.7.8,3.5,1,5.3,1.2,1.6,0,3.4-.1,4.5,1.3.9.9,3.6,4.1,3.8,4.7,0,0,0,0-.1-.2,2.2,2.8,3.1,4.7,4,8.6,1.9,2.3,4.8,7.2,3.7,11.1-1.9,4.4-5.7,7.8-8.7,11.5,2.4-4,5.2-7.9,7.1-12.2,1.2-2.5-.5-6.8-1.4-7.7-.9-.8-2.9-3.8-3.2-6,0-.3-.4-1.3-.4-1.4-.8-1.4-.5-.9-1.8-2.5-.7-1.3-1.1-1.6-2.4-2.9-2.1-.3-5.6.1-8-1.1-2.1-.6-4.3-1.9-5.9-5-1-2.2-1-4.7-1.1-7-.2-2-.5-4-.7-6,0-1.5,0-3,0-4.4h0Z"/>
  <path class="cls-2" d="M248.6,394.7c.5-3.1,1.4-6.1,2.2-9.1.5-3.3.8-6.6,1.6-9.9.5-4.5.7-7.4,1.3-11.6.5-3.1.6-4.7.8-7.9.3-2.5.9-5.9.9-7.4.5-5.2.3-10.3.5-16.1.4-3.3-.2-8.9.8-13.2.1-4,1.5-7.3,3.7-10,3.7-4.7,7-10.9,11.9-16,4.7-4.9,9.3-9.8,13.6-15,4.8-4.5,9-9.7,13.6-14.4,7.3-7,13.9-14.7,20.9-22,9.7-10.3,19.5-20.6,29.4-30.6,3.3-3.2,6.6-6.5,9.3-10.2,2.3-2.7,3.6-4.2,4.9-6.9,1.6-2.9,2.1-6.2,3-9.3.5-3.1.1-6.8.2-10.6-.2-4.3.6-8.7-.6-12.9-.5-1.4-.8-2.8-1.2-4.2-1-2-1.6-4.1-2.3-5.2-2.9-5.2-4.6-8.1-7.8-13.7-2.3-3.9-2.3-3.4-5.8-8.2-2-2.5-5.1-5.9-7.6-9.1-2.7-2.9-3.1-4.2-5.6-7-3.3-4-6.6-7.9-10.1-11.7-13.7-14.8-31.2-30.1-44.4-45.3-3.5-4.1-6.5-8.3-9.6-12.4-2.7-4.4-5.6-8.7-9.2-12.5,3.6,3.3,6.8,7.4,9.3,11.3,3.7,4.5,7.6,9.5,11.9,13.8,13.4,14.7,30.6,29.9,44.9,45.5,1.8,2.4,2.8,3.6,4.9,5.8,2.8,3.5,4.9,6,6.9,8.7,4.4,5.4,8.8,10.2,12.2,14.9,2.6,3,4.2,6.7,6.4,10.1,1.9,3.6,3.7,6.3,6.1,10.9.9,2.1,1.9,4.1,2.6,6.2.5,2.3,1.4,4.5,1.8,6.8.5,6.1,0,12.3.2,18.4.1,3.1-.6,6.2-1.6,9.1-.4,1.5-.7,3.1-1.6,4.4-2.2,4.1-5.9,8.3-9.3,12.2-9.8,10.1-19.9,20-29.5,30.4-3.1,3.7-6.7,6.9-9.9,10.6-4.7,5.3-9.7,10.4-14.7,15.5-4.5,4.2-8.3,9.2-12.7,13.5-2.3,2.1-4.3,4.6-6.3,7-3,3.2-5.9,6.5-9,9.6-4.1,4.2-7.1,8.7-10,13.3.2-.3-.1.2-.3.4-.4.6-.7,1.1-1.2,1.6-1,1.2-1.8,2.3-2.3,3.3-1.4,1.7-2.1,5.2-2.2,8-.9,4.8-.3,9.7-.9,14.6,0,7.4,0,13.3-1.2,20.4-.3,3.2-.6,7.7-1.3,11.7-.3,5.3-1.7,13.1-2.6,19.5-1.8,5.6-2.6,10.1-2.3,15.8-.3,3,.8,6.3,1.7,8.6,1.2,4.2,3.4,8.5,4.8,13.1,1.3,4,1.5,7.6,2.3,11.8,2.1,8.8,3.7,17.7,3.7,26.7-1-9.9-3.3-19.4-5.9-29-1-4.5-1.5-8.6-2.8-12.2-1.4-3.9-3.6-8.5-4.4-11.7-.9-2.9-2.2-5.6-2.2-8.7,0-3.1-.2-6.3.1-9.4h0Z"/>
</svg>