<?xml version="1.0" standalone="no"?>
<!DOCTYPE svg PUBLIC "-//W3C//DTD SVG 20010904//EN"
 "http://www.w3.org/TR/2001/REC-SVG-20010904/DTD/svg10.dtd">
<svg version="1.0" xmlns="http://www.w3.org/2000/svg"
 width="700.000000pt" height="700.000000pt" viewBox="0 0 700.000000 700.000000"
 preserveAspectRatio="xMidYMid meet">
<metadata>
Created by potrace 1.14, written by Peter Selinger 2001-2017
</metadata>
<g transform="translate(0.000000,700.000000) scale(0.100000,-0.100000)"
fill="#000000" stroke="none">
<path d="M3305 6994 c-633 -42 -1224 -238 -1730 -575 -223 -149 -354 -256
-545 -448 -194 -194 -301 -325 -449 -546 -299 -450 -491 -978 -557 -1535 -21
-177 -24 -572 -5 -740 72 -649 292 -1217 666 -1726 768 -1041 2041 -1570 3328
-1383 1286 186 2370 1087 2795 2320 133 385 187 717 187 1144 0 335 -28 558
-105 865 -201 795 -696 1510 -1380 1995 -469 331 -1023 541 -1615 610 -130 15
-476 26 -590 19z m1953 -1401 c66 -48 118 -174 152 -367 39 -222 45 -349 44
-906 -1 -566 -20 -1016 -49 -1185 -109 -625 -636 -1074 -1420 -1209 -109 -19
-119 -19 -112 -3 3 6 163 417 356 912 197 506 358 905 368 912 12 10 78 13
249 13 194 0 234 2 244 15 29 35 -20 206 -144 499 -41 99 -81 183 -88 188 -20
12 -92 9 -203 -7 -352 -53 -651 -206 -891 -457 -140 -147 -241 -308 -334 -530
-32 -78 -50 -96 -89 -83 -11 3 -28 29 -42 63 -178 450 -534 789 -985 940 -108
36 -205 57 -339 73 -96 11 -99 11 -116 -10 -10 -13 -15 -29 -12 -39 4 -9 240
-534 526 -1167 l519 -1150 -23 -68 -24 -68 -40 7 c-126 20 -392 116 -553 199
-489 250 -778 632 -843 1112 -18 138 2 546 42 828 56 405 142 651 264 764 69
64 124 85 220 84 119 -1 204 -33 600 -232 447 -225 610 -285 845 -311 253 -28
477 69 787 342 54 48 227 218 383 379 323 331 404 404 504 455 61 31 78 35
124 31 31 -2 64 -12 80 -24z"/>
</g>
</svg>
