<?xml version="1.0" encoding="UTF-8"?><svg id="Layer_1" xmlns="http://www.w3.org/2000/svg" xmlns:xlink="http://www.w3.org/1999/xlink" viewBox="0 0 564.72 558.26"><defs><style>.cls-1{fill:url(#linear-gradient);stroke-width:0px;}</style><linearGradient id="linear-gradient" x1="1586.55" y1="-13.07" x2="1275.26" y2="-509.72" gradientTransform="translate(-1014.34 -421.85) rotate(39.08)" gradientUnits="userSpaceOnUse"><stop offset=".04" stop-color="#cb5b44"/><stop offset=".19" stop-color="#d37048"/><stop offset=".56" stop-color="#e69d50"/><stop offset=".84" stop-color="#f1b956"/><stop offset="1" stop-color="#f6c458"/></linearGradient></defs><path class="cls-1" d="m563.98,99.19l-.04-.19c-6.94-26.82-35.91-22.94-51.94-7.69-21.77,19.52-27.06,55.42,7.59,58.3,25.14,1.97,49.73-23.14,44.39-50.42Zm-47.21,131.42c8.29,15.38,3.1,33.66-7.12,46.52-16.8,22.03-44.62,33.98-64.8,50.71-6.19,5.18-12.26,11.17-15.62,18.6-6.98,14.08,1.74,30.54,10.34,43.3,9.05,13.76,20.28,28.46,25.41,44.57,9.55,28.67-5.61,54.46-29,71.24-59.72,42.42-193.05,53.07-265.27,52.7-23.24-.31-46.92-1.52-69.7-6.2-23.39-4.69-49.1-14.91-63.98-33.77-15.97-19.03-15.75-47.3-2.43-68.4,17.02-28.83,51.09-47.67,76.38-68.53,36.79-28.79,57.03-70.96,29.18-115.15-27.1-42.17-76.52-59.83-110.09-94.37-14.22-14.43-25.94-32.89-29.08-53.87C-6.34,72.03,28.55,35.19,67.24,22.13c33.44-12.17,70.17-13.17,105.34-14.74C240.45,5.01,308.3,1.84,376.2.06c34.06-.32,78-.11,103.75,25.2,7.01,7.21,11.24,16.61,9.73,26.87-6.11,33.6-52.96,54.71-47.15,93.71,8.44,39.02,57.11,52.62,74.17,84.63l.07.14ZM89.85,464.17l-.07-.1c-5.46-7.77-16.87-6.6-20.64.72-4.58,8.22,2.9,19.3,12.57,18.71,9.14-.34,13.69-11.41,8.15-19.32ZM435.5,48.27v-.1c-.25-3.96-2.95-7.12-7.21-8.55-7.07-2.35-15.55.2-22.85,1.38-8.36,1.59-16.7,1.8-24.91,1.09-9.22-.67-18.52-1.46-27.73-2.1-5.34-.29-15.77-.56-16.91,6.24.55,8.69,14.48,8.23,20.51,8.61,6.43.27,12.9,1.09,18.86,3.68,5.54,2.35,11.12,6.84,12.14,13.49.95,5.77-1.49,11.79-2.94,17.44-2.54,8.47-1.44,18.47,5.71,23.66,7.63,5.88,19.02,2.05,22.26-7.46,2.54-6.69.59-14.65,1.35-21.35.6-6.05,4.07-10.91,7.99-15.15,5.09-5.89,13.96-12.39,13.73-20.87ZM69.94,266.05c7.31,5.5,17.82-.22,18.5-9.86v-.12c.67-9.48-8.93-15.76-16.47-12.46-8.74,3.49-9.92,16.81-2.04,22.44Zm26.08,50.75c12.46,9.38,30.38-.38,31.55-16.82v-.21c1.14-16.16-15.22-26.87-28.08-21.24-14.9,5.95-16.92,28.67-3.47,38.27Z"/></svg>