<?xml version="1.0" encoding="UTF-8"?><svg id="Layer_1" xmlns="http://www.w3.org/2000/svg" xmlns:xlink="http://www.w3.org/1999/xlink" viewBox="0 0 608.16 628.84"><defs><style>.cls-1{fill:url(#linear-gradient);stroke-width:0px;}</style><linearGradient id="linear-gradient" x1="1915.04" y1="832.15" x2="1593.11" y2="318.52" gradientTransform="translate(-702.91 -1228.22) rotate(39.08)" gradientUnits="userSpaceOnUse"><stop offset="0" stop-color="#cb5b44"/><stop offset="1" stop-color="#f6c458"/></linearGradient></defs><path class="cls-1" d="m22.18,125.64c25.1-10.13,69.61-.36,74.52,29.09l.02.21c1.26,10.75-5.99,20.38-15.26,25.48-18.28,10.16-43.56,8.57-61.62-1.17-26.48-14.19-27.23-42.37,2.33-53.6Zm500.74,362.16l-.2-.18c-15.44-13.73-41.51-8.4-47.89,11.83-7.8,26.11,22.94,45.76,44.97,32.63,16.35-9.3,17.27-32.41,3.12-44.29Zm62.53-177.83c32.67,31.88,29.9,83.99-7.08,111.06-13.55,10.34-29.98,16.46-46.44,20.36-24.35,5.98-50.92,7.72-73.46,18.85-35.92,17.49-40.82,54.79-11.16,81.3,15.78,14.36,36.28,22.04,55.1,32.11,9.95,5.37,20.06,11.79,26.92,20.85l.14.19c13.44,17.92,1.37,32.24-18.36,33.88-23.73,1.93-47.14-7.32-69.79-13.7-64.16-20.31-132.28-26.86-199.18-19.78-40.29,3.78-80.15,11.84-120.77,11.54-32.63-.36-67.18-7.02-91.48-30.01-28.27-26.16-25.76-66.14-4.53-96.09,31.12-45.01,78.78-59.72,128.28-75.78,12.36-4.87,26.86-10.78,32.83-23.39,8.22-19.1-13.93-33.73-30.72-38.54-39.54-13.13-91.85-6.35-122.54-38.43-12.58-13.63-14.68-34.8-4.28-50.24,10.9-16.6,30.55-24.36,47.8-32.77,22.85-11.51,48.82-23.46,62.31-46.35,9.75-16.89,5.1-36.01-9.4-48.62-27.8-24.41-75.51-28.58-99.87-56.96-11.82-13.56-11.22-32.76,2.37-45.26C63.28-2.75,118.54-2.16,159.35,2.39c74.61,6.33,157.94,29.55,224.25,32.09,46.72.73,113.21-1.07,133.17,51.23,21.08,57.78-52.26,92.98-37.05,144.61,8.86,25.93,38.27,38.3,61.4,49.92,15.98,7.88,31.85,16.73,44.33,29.73ZM116.69,457.58l-.14-.06c-17.52-5.33-41.01,17.14-52.1,29.37-10.02,11.59-18.81,24.02-17.66,38.91.72,13.21,13.6,25.04,26.86,20.06,5.64-1.98,10.58-6.74,14.44-12.89,5.61-8.85,9.24-20.24,13.99-30.26,3.81-8.44,9.54-16.91,13.73-24.57,4.29-8.34,7.97-16.63.89-20.57Zm411.35-54l-.06-.13c-4.48-10.32-18.61-12.4-25.18-5.34-7.81,7.82-1.79,22.45,10.07,24.65,11.16,2.34,19.7-8.68,15.17-19.18Zm50.92-37.53c-2.55-19.07-15.3-36.47-32.71-44.64-.05-.02-.1-.04-.14-.07-4.3-2-8.53,2.91-6.01,6.92,7.16,11.37,11.52,25.18,10.35,35.8-.52,4.76-1.82,9.43-2.04,14.21-.3,6.55,1.74,13.76,9.01,16.18,5.1,1.69,10.66.13,14.66-3.47,6.87-6.18,8.06-16.05,6.87-24.93Z"/></svg>