<?xml version="1.0" encoding="UTF-8"?>
<svg id="Layer_1" data-name="Layer 1" xmlns="http://www.w3.org/2000/svg" version="1.1" viewBox="0 0 445.5 135.8">
  <defs>
    <style>
      .cls-1 {
        fill: #fff;
        stroke-width: 0px;
      }

      .cls-2 {
        fill: #000;
        font-family: MyriadPro-Regular, 'Myriad Pro';
        font-size: 59.6px;
      }
    </style>
  </defs>
  <text class="cls-2" transform="translate(-276.9 -495.7)"><tspan x="0" y="0">Heartfelt Gifts</tspan></text>
  <path class="cls-1" d="M432.6,53.6c-3.5-.1-7-1-10.3-2.4.5-.7,1-1.3,1.5-2,0,0-.4.3,0-.4.7-1,1.3-1.9,1.9-2.8.6-.9,1.2-1.8,1.7-2.9v-.2c.9-1.6,1.8-3.3,2.6-5.3.6-1.8,1.1-3.8,1.1-5.8,0-2.1-.5-4.2-1.5-6.1,0,.1,0,.2-.2-.2-.5-.8-1.1-1.6-2-2.4-.9-.8-2-1.5-3.4-1.9-.4,0-.8-.2-1.2-.2-.3,0-.4,0-.4,0-1.2,0-2.2.1-3.2.4-1.3.4-2.5,1.2-3.4,2.2-.8.9-1.4,2-1.8,3.1-.4-.3-.8-.6-1.2-.9-1.5-.9-3.4-1.4-5.3-1-1.9.4-3.5,2-4.1,3.8-.4,1.3-.4,2.7-.2,3.9.2,1.3.5,2.4.9,3.6.3.8.7,1.7,1.1,2.5.4.8.9,1.7,1.4,2.6.5.8,1.1,1.7,1.7,2.4.3.4.6.7.9,1.1.3.3.6.7.9,1,0-.2.4,0,.9.5.6.4,1.3,1,2,1.5.7.5,1.5,1,1.9,1.2.5.2.7.3.4,0,.7.6,1.6,1.2,2.5,1.7-2.6,3.2-5.6,6.3-8,8.4-1.5,1.5-3.2,2.8-4.9,4.1.2,0,.3-.2.4-.3-7.1,5.1-13.9,10-20.7,15-.4-.2-.4-.2-.8-.4.2-2.6.2-5.2.7-7.7.6-2.7,1.1-5.8,5-7.6-1.4-1.1-2.2-2.2-3.3-2.4-.6-.1-1.7,1-2.4,1.8-.5.5-.7,1.3-1.1,2-2.4,4.5-1.5,9.4-2,14.2-.1,1.3-.8,2.6-1.6,3.6-2.3,3.1-5,5.8-7,9-1.9,3.1-.7,8.5,2.3,10.6,1.2.8,3.2,1.2,4.6.9,3.6-.7,6.3-4.2,6.3-8,0-3-.4-6-.9-8.9-.3-1.7,0-3.1,1.5-4.1,3.2-2.3,6.2-4.8,9.5-6.8,3.2-1.9,5.9-4.4,8.8-6.7,2.7-2.2,5.8-3.9,8.4-6.2,1.6-1.4,3.2-2.8,4.7-4.4.5-.5,3.8-4.9,4.2-4.8.2,0,.4,0,.6.1.6.1,1.3.4,2.2.6.9.3,2.1.5,3.4.7.5,0,1.1.2,1.8.3.6,0,1.3.1,1.9.2,1.2.1,2.2,0,2.6,0,1.2-.1-2.8-.3-1.6-.4ZM382.1,93.5c-.5,2.7-2.6,4.1-5.2,4.7-1.8.4-2.5-.2-2.2-2.1.8-4.8,3.8-8.1,7.2-11.2l1,.2c-.3,2.8-.3,5.6-.9,8.4ZM388.3,77.2c-.5.6-1.1,1.2-1.6,1.7-.2-.2-.4-.5-.5-.7.7-.4,1.3-.9,2-1.3,1.6-1.4,3.2-2.7,4.8-4.1.2.2.4.5.5.7-1.3,1.6-2.9,3-5.1,3.6ZM404.9,65.7c0,0,0-.1.1-.2.2,0,.3-.1.2,0,0,0-.2.1-.4.2ZM407,62.1s0,0,0,0c0,0,.2-.1.3-.2,0,0-.2.1-.3.2ZM428,26.4c.3,1.1.5,2.7.6,4.2.3,1,.6,2,.4,2.8-.7,4.3-3.3,8.2-5.5,11.6l-.5-.9c2.2-3.4,4.8-6.7,5.5-10.8.1-.8.1-1.8,0-2.8-.5-1.4-1.1-2.8-1.4-3.9l.8-.3ZM421.3,46.1c-.2.3-.3.5-.5.7-.6.9-1.3,1.8-1.9,2.6-2.7-1.6-5.1-3.5-7.1-5.8-1.3-1.5-2.5-3.1-3.4-4.8-.5-.8-.9-1.7-1.3-2.6-.4-.9-.7-1.7-.8-2.6-.4-1.8-.2-3.6.5-4.6.4-.5.9-.8,1.4-1,.6-.1,1.3-.1,2.1.2.5.2,1.5.5,2.4,1.6,1,1.1,2,2.8,3,5.2,3.4,2.9,4.2,1.3,3-2.1-.9-.8-1.5-2.2-1.4-3.7,0-1.5.8-2.9,2.2-3.7,1.4-.8,3.2-1,4.6-.3,1.4.7,2.5,2.2,3,3.9.5,1.7.4,3.5,0,5.2-.4,1.7-1.1,3.4-1.8,4.9-1.5,3-3,5.4-4,6.9ZM69.4,69.6c-3.2,1.3-6.4,2.7-9.7,3.7-1.3.4-3.4.2-4.1-.6-.6-.7.1-2.7.3-3.9,1.8-.2,3.1,0,4-.6,2.5-1.7,4.7-3.7,7-5.7,2-1.7,1.3-3.6-.1-5.2-1.4-1.6-3.2-1.3-4.8-.3-4.6,2.7-7.5,6.9-8.8,11.9-1.6,6.1,2.6,10,8.3,7.5,4-1.8,7.4-5,11-7.6,0,0,0-.3,0-.7-1,.5-2,1-2.9,1.4ZM64.3,58.8c.2.3.4.5.6.8l-4.4,3.6c-.1-.2-.3-.3-.4-.5,1.4-1.3,2.8-2.6,4.2-3.9ZM111.8,62.9c-1.6,2-3.3,4-4.9,5.9-3.9,2.6-7.8,5.1-12.9,6,.3-2.1.6-3.9.9-5.7.4-2.6-.5-3.7-2.4-3.7-.7-1.7-1-3.8-2.1-4.5-1.3-.8-3.4-.7-5.1-.7-.8,0-1.8.8-2.2,1.5-2.5,4-4.9,8-7.2,12.1-1.1,1.9.2,3.6,1.5,4.5.9.6,2.9.4,3.9-.2,2-1.2,3.8-2.9,5.6-4.4,1.6-1.3,3.1-2.6,5.1-4.2,0,2.1,0,3.5,0,4.9.2,3,2.7,4.7,5.2,3.2,4-2.3,7.7-5.1,11.5-7.8.3-.2.3-.9.5-1.4,1.1-1.7,2.3-3.5,3.4-5.2-.3-.2-.5-.4-.8-.6ZM87.2,68.8c-2.5,2-4.8,4.2-7.2,6.3-.2-.2-.5-.5-.7-.7,2.2-4.2,3.9-8.8,9.3-10.7.4,2.1.4,3.7-1.4,5.1ZM285.7,81.9s0,0,0,0c0,0,0,0,0,0h.3c0,0-.2,0-.2,0h0ZM50.7,64.3c-4.9,3.7-9.8,7.4-14.8,11-3.2,2.3-5.8,1.2-6.4-2.6-.2-1.6-.3-3.1-.5-4.7-.4-4.4-2.9-5.7-6.5-3.2-2,1.4-3.7,3.3-5.6,4.9-.2-.1-.3-.2-.5-.3,1.3-2.6,2.6-5.3,4-7.9,6.2-11.3,11.7-23,15.3-35.5,1-3.6,1.3-7.5,1.5-11.3,0-2.3-2-3.5-4-3.9-1.9-.4-3.4.9-4.1,2.6-1.4,3.1-3,6.1-4,9.4-3.4,11.7-6.6,23.5-9.9,35.2-.8,2.7-1.8,5.3-2.5,8-.9,3.4-1.8,6.9-2.2,10.3-.2,1.5.5,3.2,1.1,4.7.6,1.3,1.4,1.6,2.5,0,1.8-2.7,3.8-5.3,5.9-7.8,1.5-1.9,3.3-3.5,4.9-5.3,1.1,2.8,1.8,5.4,3,7.6,2.6,4.7,7.3,5.6,11.6,2.5,1.2-.9,2.2-2,3.2-3.1,2.9-3.2,5.8-6.4,8.8-9.6.6-.6,1.1-1.2,1.6-1.9-1.1,0-1.8.4-2.4.9ZM34.2,12.2c2.8,6.7-8.7,33.8-14.1,41.5,3.9-13.9,6.1-28.4,14.1-41.5ZM318.5,51.9c-1.1-1.2-1.7-1.8-2.4-2.5,1.1-.9,2.2-1.7,3.2-2.6.4.6,1.2,1.4,1,1.8-.3,1-1.1,1.9-1.9,3.3ZM235,62c-5.2,4.4-10.3,8.9-15.5,13.3-1.4,1.2-3.1,2-4.6,2.9-2,1.2-3.5.2-3.7-1.6-.5-4.3-1.3-8.8,2.4-12.3,1.3-1.2,2.5-2.8,3.2-4.4,4.9-10.6,9.7-21.1,14.3-31.8,1.6-3.7,2.5-7.7,3.3-11.7.4-2,.3-4.2-.2-6.1-.9-3-3.5-3.4-5.7-1.2-4.4,4.6-7.5,10.1-9.7,15.9-5.4,14.1-9.8,28.5-11.1,43.6-.2,2.3-.2,4.9.5,7.1,1.7,5.4,6.5,7.2,11.2,4.2,2.9-1.9,5.3-4.4,8.2-6.9-1.1-.4-1.8-.6-2.5-.9,3.6-3.3,7-6.4,10.3-9.5-.2-.2-.3-.3-.5-.5ZM225.6,36.3c-.9,3.8-2.9,7.2-4.9,10.5-.2-.1-.5-.2-.7-.4,1.8-3.4,3.6-6.8,5.4-10.2.2-.9.5-1.9.7-2.8.3,0,.6.2.8.3l-1.3,2.7ZM228,31.6l-.8-.3c.4-1.1.9-2.2,1.3-3.3.2,0,.5.2.7.2-.4,1.1-.8,2.2-1.2,3.4ZM215.6,44.1c2.8-8.5,5.8-16.9,8.9-25.3,1.3-3.6,3.5-6.6,6.5-9,.3,0,.5.2.8.2-.4,2.5-.6,5-1.2,7.3-3.9,13.9-10.1,26.7-17,39.3-.1.3-.4.5-.6.7-.1,0-.3-.1-.4-.2,1-4.4,1.7-8.9,3.1-13.2ZM178.3,63.9c-.3-.1-.6-.2-1-.4,1.1-.8,2.2-1.4,3.2-2.1-.1-.2-.2-.4-.3-.7-7.8,3.5-15.5,7.4-24.4,7.9,0-.6,0-1.3.2-1.8,4.2-7.8,8.4-15.6,12.8-23.3,1.2-2.1,3.2-3.8,4.9-5.7-6.7-2.4-14.2-1.2-21.5-2.2,1.2-4.5,2.6-8.9,3.6-13.3.8-3.6,1.2-7.3,1.3-11,0-1-1.3-2.3-2.4-3.1-.3-.2-2,.9-2.5,1.8-1.2,2-2.2,4.1-2.9,6.3-1.8,5.7-3.5,11.4-5.1,17.2-.5,2-1.6,2.7-3.5,2.8-1.9,0-3.8.4-5.7.7-1.6.3-2.6,2-1.7,3.1.6.7,2,.9,3.1.9,1.8,0,3.6-.5,5.7-.8-2.6,10.7-5.4,20.8-6.2,31.4-.3,3.7-.5,7.5-.1,11.2.3,3.1,1.1,6.5,4.9,7.9-3.4-8-3.6-16-.3-23.4,3.9-8.6,7.4-17.2,10.1-26.3.2-.8,1.4-1.7,2.3-1.7,3-.2,6,0,9,0,1.7,0,3.5,0,4.8,0-4.8,9.3-9.7,18.4-14,27.7-1.5,3.4-3.4,4.6-6.7,4.5-.6,0-1.3.4-1.9.7.4.7.7,1.7,1.3,2.2,1,.7,2.3.9,3.4,1.4-1.1,4.1-2.3,8.1-3.1,12.1-1.2,5.6-1.8,11.2.6,16.7,2.5,5.5,6.8,6.4,11.1,2.2,5-4.8,8-10.8,8.9-17.7.7-5.3-2.6-11.2-7.4-13.4-1.5-.7-3.2-1.3-5.2-2.1,8.6-3.1,16.7-6,24.9-9,0-.2-.2-.4-.2-.6ZM154,12.4c.4.1.7.2,1.1.3-1.1,4.5-2.2,9-3.3,13.4-.7,2.8-1.6,5.6-2.5,8.3-.2.6-1,1.1-1.6,1.6l-.7-.6c2.4-7.7,4.7-15.4,7.1-23.1ZM145.9,39.6c.5.2,1,.4,1.5.6-1.6,4.3-3.1,8.7-4.7,13,.9-4.6,1.5-9.3,3.1-13.7ZM144.5,53.4c-.2,0-.4-.1-.6-.2,1.6-4.5,3.3-9,4.9-13.5.3.1.6.2,1,.4-1.7,4.4-3.5,8.9-5.2,13.3ZM150.1,35.6c0-.3,0-.6,0-.8,1.6-5.3,3.2-10.6,4.7-15.9.2,0,.3.1.5.2-1,3.8-1.9,7.6-3,11.4-.5,1.8-1.2,3.5-2.2,5.1ZM152.1,37.4c0-.3,0-.6,0-.8,6.3.3,12.5.7,18.8,1,0,.3,0,.5,0,.8-6.2-.3-12.5-.6-18.7-.9ZM154,76.5c.3,0,.6.2,1,.2,9.3.7,9.5,7.5,7.8,13.6-.4,1.4-1,2.8-1.5,4.1.3.1.6.2.9.4,1.1-2.9,2.2-5.8,3.2-8.5.9,2.1-.3,4.4-1.2,6.7-2.3,5.4-6.6,9.2-11.1,12.6-2.6,1.9-4.8.7-5.3-2.7-.8-5.5-.6-10.9,1.3-16.2,1-2.8,1.8-5.8,2.5-8.8.4-1.5,1.1-1.8,2.4-1.5ZM133,58.8c-7.8,4-12.3,10.8-15.8,18.5-.5,1-1.7,1.6-2.6,2.5-.8-1.1-2.2-2.3-2.1-3.3.4-5.1,1.3-10.1,2.1-15.6,4.3,1.2,2.8,4.1,2.9,6.5,4.6-4.1,7.5-11.2,15.6-8.6ZM379.5,41.4c.5-1.5,1.1-2.3,2.7-2.3,3.2,0,6.3.1,9.5.1,1.9,0,3.8,0,5.8,0,0-.3,0-.6,0-.9-5.4-.3-10.8-.7-16.2-1,0-.3,0-.5,0-.8,6.3.3,12.6.7,18.9,1,0,.2,0,.3,0,.5-.5.2-1.1.4-1.6.6.9.2,1.7.3,2.4.2.7-.1,1.4-.4,2.1-.6-7-2.8-14.2-1.8-21.5-2.6,0-.6,0-1.1.2-1.6,1.5-5.5,3.1-11,4.4-16.6.5-2.2.4-4.6.1-6.8-.1-1-1.4-2-2.4-2.5-.4-.2-1.8.8-2.2,1.5-1.1,1.7-2.1,3.4-2.7,5.3-1.8,5.5-3.3,11-5,16.5-1.6,4.9-.1,4.4-5.9,4.9-1.3.1-2.6.3-3.9.5-1.5.3-2.5,2.6-1.4,3.4.8.6,2.2.6,3.3.6,1.7,0,3.3-.5,5-.8-1.6,7.8-3,15.2-4.6,22.7-.4,1.7-1.3,3.4-1.5,5.1-.3,3.2-.5,6.4-.3,9.6.2,3.1.7,6.3,1.5,9.3.4,1.7,1.6,3.2,3.8,3.5-3.5-7.9-2.8-18.3.5-25.5,3.5-7.6,6.1-15.6,9-23.4ZM374.2,52c-.2,0-.5-.2-.7-.3,1.4-4,2.9-8.1,4.3-12.1.3.1.7.2,1,.3l-4.6,12.1ZM384.1,18.5c.2,0,.3,0,.5.1l-4.8,17.1c-.3,0-.6-.2-.9-.3,1.7-5.7,3.4-11.3,5.1-17ZM382.8,13.2c.3,0,.6.2.9.3-.8,7.7-3.6,14.8-5.8,22.1,0,.2-1,.2-2,.4,2.4-8,4.7-15.4,6.9-22.8ZM375.2,39.6c.5.2,1,.4,1.4.7-1.5,4.2-3,8.5-4.6,12.7.9-4.5,1.3-9.2,3.1-13.4ZM268.6,38.3c-5.4-.3-10.9-.7-16.3-1,0-.3,0-.5,0-.8,6.3.3,12.6.7,18.9,1,0,.2,0,.3,0,.5-.5.2-1,.4-1.5.6,0,.1,0,.2.1.4,1.5-.2,2.9-.5,4.4-.7-7-2.9-14.4-1.8-21.7-2.8.3-1.2.6-2.3.9-3.3,1.4-5.1,2.9-10.2,4.1-15.3.4-1.9.3-4,0-5.9-.2-1.1-1.4-2.2-2.4-2.8-.4-.2-1.9.8-2.4,1.6-1.1,1.7-2,3.5-2.6,5.3-1.7,5.2-3.2,10.5-4.8,15.7-1.9,6-.5,4.9-6.7,5.6-.7,0-1.5.3-2.2.4-1.7,0-3.1.5-2.8,2.6.3,2.3,2.2,1.6,3.5,1.5,1.7-.1,3.4-.5,5.3-.8-.1.9-.1,1.4-.2,1.8-2.6,9.8-5,19.5-5.8,29.6-.3,3.7-.4,7.5,0,11.2.3,3.1,1,6.3,4.7,7.8-3.1-8.8-2.9-17.1.7-25.5,3.3-7.8,6.1-15.8,9.1-23.7.5-1.3,1-2.2,2.5-2.2,3,0,6,0,9,0,2.1,0,4.3,0,6.4,0,0-.3,0-.6,0-.8ZM254.2,12.5c.4.1.9.3,1.3.4-2,7.3-4.1,14.6-6.2,21.9-.1.5-1,.8-1.5,1.2-.2-.2-.4-.3-.6-.5,2.3-7.7,4.7-15.4,7-23ZM247.9,39.9c-1.7,4.8-3.4,9.4-5,14,1-8.6,2.8-13.7,5-14ZM245.4,52.1c-.2,0-.5-.2-.7-.3,1.4-4.1,2.9-8.1,4.3-12.2.3.1.7.2,1,.4l-4.6,12.1ZM251,35.8c-.3,0-.6-.2-.9-.3,1.7-5.6,3.4-11.2,5.1-16.8.2,0,.4.1.5.2-1.6,5.6-3.2,11.2-4.7,16.9ZM197,69.6c-3.2,1.3-6.4,2.7-9.7,3.7-1.3.4-3.4.2-4.1-.6-.7-.8,0-2.7.2-4.1.3.2.6.4.9.5,2-.8,4.2-1.2,5.9-2.4,1.7-1.1,2.9-2.9,4.3-4.4,1.7-1.7,1.2-3.2-.1-4.8-1.3-1.6-2.9-1.6-4.5-.8-5.2,3-8.5,7.5-9.4,13.4-.8,5.3,2.8,8.5,7.7,6.5,4.3-1.8,8.1-5,12.1-7.6-.2-.3-.3-.5-.5-.8-.9.4-1.9.9-2.8,1.3ZM191.8,58.8c.2.2.5.5.7.7-1.5,1.3-3,2.5-4.6,3.8-.1-.2-.3-.3-.4-.5,1.4-1.4,2.9-2.7,4.3-4.1ZM356,39.8c-2.8-2.2-3.6-2.4-5.3.5-5,9-9.8,18.1-14.5,27.2-1.6,3.2-3.4,4.4-6.9,3.4,1.1-1.5,2.2-3.1,3.4-4.7-.2-.2-.4-.4-.6-.6-.5.3-1,.7-1.5,1-.8.5-1.5,1.1-2.3,1.6-4.9,3.8-10,7-16.7,7.7.4-4.8,1.6-8.8,3.9-12.4.8-1.3.9-2-.2-2.9-1.2-1-2.3-.5-2.9.6-2.5,4.9-5.6,9.8-2.7,15.7-2.9-1.1-5.9-2.2-9.3-3.5,0-.6,0-2,0-3.4-.2-3.1-.2-6.3-.7-9.4-.4-2.5-2.1-2.9-3.9-1.2-1.4,1.4-2.7,2.9-4,4.3.2-.8.5-1.5.3-2.2-.2-1-.6-2.5-1.4-2.8-1.1-.5-3.1-.6-3.8,0-4.5,3.9-7.2,8.8-7.8,14.8-.2,1.8.4,3.4,2,3.8,1.2.3,3.1-.1,3.9-.9,2.6-2.5,5-5.3,7.3-8.1,1.5-1.7,2.8-3.6,4.7-6,0,2.1.2,3.5.2,4.9-.2,9.2,1.8,6.7-6.7,10.9-1.7.9-3.2,2.3-4.8,3.5.9-.4,1.8-.8,2.7-1.2,0,.1.2.2.2.4-1.7,1.2-3.5,2.3-5.2,3.5-2.3,2.4-4.7,4.7-7,7.1,0,0,0,.1,0,.2,0,0,0,.2-.2.2-1.9,3-3.8,6-5.7,8.9,0-.6,0-1.2,0-1.8.4-1.1.9-2.1,1.3-3.2,1.4-1.3,2.9-2.7,4.3-4,0,0,.1-.2.2-.2,0,0,0,0,0-.2,2.3-2.4,4.7-4.7,7-7.1,0,0,0,0,0,0h0c.7-.8,1.3-1.6,2-2.4-.4,0-.9,0-1.1.3-3.9,3.7-7.8,7.4-11.6,11.2-.5.5-.7,1.4-1.1,2.1l-1.5,2.9c-1.2,2.3-2.6,4.5-3.7,6.9-.6,1.3-.5,2.8-.8,4.2,0,.9.1,1.9.2,2.8,0,0-.1,0-.2,0,0-1,0-1.9,0-2.9-.2.3-.5.5-.5.8-.8,7,.8,13.4,5.7,18.6,2.1,2.2,5,3.4,7.9,2,2.3-1.1,4.7-2.8,6.2-4.8,5.7-7.6,9.6-16.2,11.8-25.5,1.6-6.6,2.3-13.5,3.2-20.3.3-2.1.8-3.3,3.2-3.4,4.4-.2,7.6,1.5,9.1,5.9.2-.2.5-.4.7-.6-1.1-1.7-2.1-3.3-3.2-5,7.6,4.1,12.2-1.5,16.9-4.9,2,1.2,3.7,2.3,5.7,3.6-.2.8-.5,1.9-.8,3-.8,3.3-1.9,6.6-2.5,9.9-1.1,5.6-1.5,11.3,1.4,16.6,2.3,4.2,6.2,5,9.8,1.9,5.6-5,9-11.3,9.7-18.8.6-6-3.1-11.4-8.7-13.4-1.2-.4-2.3-1-3.9-1.7,3.8-1.3,7.1-2.4,10.3-3.6,5.8-2.2,12.5-2.9,16.4-8.8-7.7,4-15.8,6.8-25.1,7.9,4.9-10.5,9.3-20.6,16.8-29ZM282.8,74.5c-.2-.2-.4-.3-.7-.5,1-4.2,2.6-8.2,5.7-11.8.5,2.9,2.5,1.5,3.9,1.7-.7,1-1.4,2-2.1,3,0,0,0,0,0,0-2.3,2.5-4.6,5-6.9,7.6ZM290.2,67.7c-.1-.3-.3-.6-.4-.8,1.7-1.6,3.3-3.2,5-4.8.1.1.3.2.4.3-1.7,1.8-3.3,3.5-5,5.3ZM270.6,101.1l-.9,2.7c-.2,0-.4-.2-.6-.3.5-.8,1-1.7,1.5-2.5ZM297.1,83.6c-1.5,12-4.6,23.4-10.7,33.9-1.5,2.6-3.4,4.9-5.4,7.2-.9,1.1-2.3,1.9-3.6,2.5-3.7,1.5-5.9.5-7.1-3.2-2.9-8.8-.9-17.1,3.4-24.9,5.2-9.3,13.1-15.7,22.6-20.3.3-.1.6-.2,1.3-.4-.2,2-.2,3.6-.4,5.3ZM340.5,77c6.5,1,7.6,5.2,6.8,10.8-.3,2.4-1.4,4.7-2.1,7,.2,0,.4.2.7.3,1.2-2.9,2.3-5.8,3.3-8.3.7,1.3.4,3.9-1.3,6.7-1.3,2.1-2.3,4.4-4,6.2-2.3,2.3-4.8,4.5-7.6,6.1-2.5,1.5-4.2.4-4.6-2.6-.6-4.6-.7-9.2.4-13.7,1.2-4.4,2.5-8.8,3.8-13.3,1.9.3,3.3.6,4.6.8ZM285.7,81.9s0,0-.1,0c0,0,0,0,0,0,0,0,0,0,0,0,0,0,0,0,0,0Z"/>
</svg>