<?xml version="1.0" encoding="utf-8"?>
<!-- Generator: Adobe Illustrator 28.0.0, SVG Export Plug-In . SVG Version: 6.00 Build 0)  -->
<svg version="1.1" id="Layer_1" xmlns="http://www.w3.org/2000/svg" xmlns:xlink="http://www.w3.org/1999/xlink" x="0px" y="0px"
	 viewBox="0 0 662.2 140.4" style="enable-background:new 0 0 662.2 140.4;" xml:space="preserve">
<style type="text/css">
	.st0{fill:#FFC23D;}
	.st1{fill:#353F68;}
	.st2{fill:#DB523B;}
</style>
<path class="st0" d="M106.5,36.3C75.4,34.5,53.9-9.3,50.1,60.2c-1.5,26.7,22.1,43.7,53.2,45.4c31.1,1.7,56.4-12.6,57.9-39.3
	C168-57.7,137.6,38,106.5,36.3z"/>
<g>
	<path class="st1" d="M44.2,36.6v1.6c0,0.8,0.6,1.4,1.4,1.4h12.8c0.5,0,1,0.3,1.3,0.8l7.6,17.1c0.4,0.9-0.3,1.9-1.3,1.9H45.6
		c-0.8,0-1.4,0.6-1.4,1.4v45c0,0.8-0.6,1.4-1.4,1.4H16c-0.8,0-1.4-0.6-1.4-1.4v-45c0-0.8-0.6-1.4-1.4-1.4H6.3
		c-0.8,0-1.4-0.6-1.4-1.4V40.9c0-0.8,0.6-1.4,1.4-1.4h6.9c0.8,0,1.4-0.6,1.4-1.4v-2c0-17.6,13.5-32,49.2-30.6c0.7,0,1.3,0.6,1.3,1.4
		l0.1,18.2c0,0.8-0.7,1.4-1.5,1.4C48.7,25.4,44.2,30.3,44.2,36.6z M273.7,109.7c-23.8,0-52.7-9.8-52.7-38
		c0-24.5,21.2-34.7,40.4-34.7c22.4,0,42.1,10.8,42.6,38.9c0,0.8-0.6,1.4-1.4,1.4h-48.3c-1.1,0-1.7,1.1-1.2,2.1
		c4,7.2,14.3,11.2,26.2,11.2c3.5,0,9.7-0.2,14.7-0.8c0.8-0.1,1.5,0.5,1.5,1.3l0.8,16.2c0,0.7-0.5,1.3-1.2,1.4
		C288.3,109.3,280.8,109.7,273.7,109.7z M253.3,62h17.9c0.9,0,1.6-0.9,1.3-1.7c-1-3.8-4-7.5-10.1-7.5c-5.4,0-9,2.4-10.5,7.5
		C251.7,61.1,252.4,62,253.3,62z M346.7,36.6v1.6c0,0.8,0.6,1.4,1.4,1.4h12.5c0.8,0,1.4,0.6,1.4,1.4v17.1c0,0.8-0.6,1.4-1.4,1.4
		h-12.5c-0.8,0-1.4,0.6-1.4,1.4v45c0,0.8-0.6,1.4-1.4,1.4h-26.8c-0.8,0-1.4-0.6-1.4-1.4v-45c0-0.8-0.6-1.4-1.4-1.4h-6.9
		c-0.8,0-1.4-0.6-1.4-1.4V40.9c0-0.8,0.6-1.4,1.4-1.4h6.9c0.8,0,1.4-0.6,1.4-1.4v-2c0-17.6,13.5-32,49.2-30.6c0.7,0,1.3,0.6,1.3,1.4
		l0.1,18.2c0,0.8-0.7,1.4-1.5,1.4C351.3,25.4,346.7,30.3,346.7,36.6z M410,109.7c-24.7,0-44.1-13.5-44.1-36.6
		c0-24.5,19.4-36.1,44.1-36.1S454,48.6,454,73.1C454.1,96.2,434.7,109.7,410,109.7z M410,55.4c-10.9,0-12.9,12-12.9,18.4
		c0,6.5,2.1,17.6,12.9,17.6s12.9-11.2,12.9-17.6C422.9,67.4,420.9,55.4,410,55.4z M517.7,59.3c0,0.8-0.8,1.5-1.7,1.3
		c-3.2-0.7-7.5-1.4-11.4-1.4c-4.2,0-8.1,1.2-11,4c-0.3,0.3-0.4,0.6-0.4,1v41.5c0,0.8-0.6,1.4-1.4,1.4h-26.7c-0.8,0-1.4-0.6-1.4-1.4
		V71c0-12-1.7-20.8-4.7-29.6c-0.3-0.9,0.3-1.8,1.3-1.8h24.6c0.5,0,1,0.3,1.2,0.7c0.8,1.6,1.4,3,1.9,4.5c0.3,0.9,1.4,1.2,2.2,0.6
		c6.3-5.2,13.7-8.3,23.9-8.3c1,0,2.3,0,3.5,0.1c0.7,0.1,1.3,0.7,1.3,1.4L517.7,59.3z M629.2,107.1c-0.8,0-1.4-0.6-1.4-1.4V66.8
		c0-6.5-4-9.5-10.1-9.5c-4.4,0-7.7,2.2-10.2,5c-0.3,0.3-0.4,0.7-0.3,1.1c0,0.3,0,0.6,0,0.9v41.5c0,0.8-0.6,1.4-1.4,1.4h-26.7
		c-0.8,0-1.4-0.6-1.4-1.4v-39c0-6.5-4.1-9.5-10.1-9.5c-4.8,0-7.9,2.4-10.2,5c-0.2,0.2-0.3,0.6-0.3,0.9v42.5c0,0.8-0.6,1.4-1.4,1.4
		h-26.8c-0.8,0-1.4-0.6-1.4-1.4V40.9c0-0.8,0.6-1.4,1.4-1.4h24.7c0.8,0,1.4,0.6,1.4,1.4v1.2c0,1.1,1.2,1.8,2.1,1.1
		c4.8-3.2,12.1-6.2,20.8-6.2c10.3,0,18.3,3.4,23.1,8.6c0.5,0.5,1.3,0.6,1.8,0.1c6.9-5.2,14.2-8.8,25.1-8.8
		c19.5,0,29.4,10.9,29.4,25.9v42.8c0,0.8-0.6,1.4-1.4,1.4L629.2,107.1L629.2,107.1z M216.9,59.3c0,0.8-0.8,1.5-1.7,1.3
		c-3.2-0.7-7.5-1.4-11.4-1.4c-4.2,0-8.1,1.2-11,4c-0.3,0.3-0.4,0.6-0.4,1v41.5c0,0.8-0.6,1.4-1.4,1.4h-26.7c-0.8,0-1.4-0.7-1.4-1.4
		l1.9-36.6V69c0-11.9-3.4-19-6.6-27.5c-0.3-0.9,0.3-1.9,1.3-1.9h24.6c0.5,0,1,0.3,1.2,0.7c0.8,1.6,1.4,3,1.9,4.5
		c0.3,0.9,1.4,1.2,2.2,0.6c6.3-5.2,13.7-8.3,23.9-8.3c1,0,2.3,0,3.5,0.1c0.7,0.1,1.3,0.7,1.3,1.4L216.9,59.3z M150.7,39.6
		L150.7,39.6L150.7,39.6L150.7,39.6z"/>
	<path class="st2" d="M150.7,39.6L150.7,39.6L150.7,39.6L150.7,39.6z M151.1,40.6c-0.2-0.5-0.7-0.9-1.3-0.9
		c-17.1,0.4-32.3,11-38.5,27l-0.9,2.2c-0.5,1.2-2.1,1.2-2.6,0l0,0c-6-16.8-21.5-28.2-39.2-29.1c-1-0.1-1.8,1-1.3,1.9l28.6,63.4
		c0.2,0.3,0.2,0.7,0,1.1L85.5,133c-0.4,0.9,0.4,1.9,1.4,1.9c16.6-0.8,31.3-11.3,37.4-27l18.4-47.4c0.2-0.5,0.7-0.9,1.3-0.9h11.9
		c0.9,0,1.5-0.8,1.4-1.6C156.2,51.7,153.2,46.1,151.1,40.6z"/>
</g>
<path class="st0" d="M-3329.1-5817.1c-525.1-30.4-888.2-770-952.3,403.6c-25.3,450.8,373.2,737.9,898.3,766.6
	s952.3-212.8,977.6-663.6C-2290.7-7404.3-2804-5788.4-3329.1-5817.1z"/>
</svg>
