<?xml version="1.0" encoding="utf-8"?>
<!-- Generator: Adobe Illustrator 28.0.0, SVG Export Plug-In . SVG Version: 6.00 Build 0)  -->
<svg version="1.1" id="Layer_1" xmlns="http://www.w3.org/2000/svg" xmlns:xlink="http://www.w3.org/1999/xlink" x="0px" y="0px"
	 viewBox="0 0 662.2 140.4" style="enable-background:new 0 0 662.2 140.4;" xml:space="preserve">
<style type="text/css">
	.st0{fill:#FFC23D;}
	.st1{fill:#353F68;}
	.st2{fill:#DB523B;}
</style>
<path class="st0" d="M110.4,42.1C79.3,40.3,57.8-3.5,54,66c-1.5,26.7,22.1,43.7,53.2,45.4c31.1,1.7,56.4-12.6,57.9-39.3
	C171.9-51.9,141.5,43.8,110.4,42.1z"/>
<g>
	<path class="st1" d="M43.1,37v1.6c0,0.8,0.6,1.4,1.4,1.4h12.8c0.5,0,1,0.3,1.3,0.8l7.6,17.1c0.4,0.9-0.3,1.9-1.3,1.9H44.5
		c-0.8,0-1.4,0.6-1.4,1.4v45c0,0.8-0.6,1.4-1.4,1.4H14.9c-0.8,0-1.4-0.6-1.4-1.4v-45c0-0.8-0.6-1.4-1.4-1.4H5.3
		c-0.8,0-1.4-0.6-1.4-1.4V41.3c0-0.8,0.6-1.4,1.4-1.4h6.9c0.8,0,1.4-0.6,1.4-1.4v-2c0-17.6,13.5-32,49.2-30.6c0.7,0,1.3,0.6,1.3,1.4
		l0.1,18.2c0,0.8-0.7,1.4-1.5,1.4C47.6,25.8,43.1,30.7,43.1,37z M272.6,110.1c-23.8,0-52.7-9.8-52.7-38c0-24.5,21.2-34.7,40.4-34.7
		c22.4,0,42.1,10.8,42.6,38.9c0,0.8-0.6,1.4-1.4,1.4h-48.3c-1.1,0-1.7,1.1-1.2,2.1c4,7.2,14.3,11.2,26.2,11.2
		c3.5,0,9.7-0.2,14.7-0.8c0.8-0.1,1.5,0.5,1.5,1.3l0.8,16.2c0,0.7-0.5,1.3-1.2,1.4C287.2,109.7,279.7,110.1,272.6,110.1z
		 M252.2,62.4h17.9c0.9,0,1.6-0.9,1.3-1.7c-1-3.8-4-7.5-10.1-7.5c-5.4,0-9,2.4-10.5,7.5C250.6,61.5,251.3,62.4,252.2,62.4z
		 M345.6,37v1.6c0,0.8,0.6,1.4,1.4,1.4h12.5c0.8,0,1.4,0.6,1.4,1.4v17.1c0,0.8-0.6,1.4-1.4,1.4H347c-0.8,0-1.4,0.6-1.4,1.4v45
		c0,0.8-0.6,1.4-1.4,1.4h-26.8c-0.8,0-1.4-0.6-1.4-1.4v-45c0-0.8-0.6-1.4-1.4-1.4h-6.9c-0.8,0-1.4-0.6-1.4-1.4V41.3
		c0-0.8,0.6-1.4,1.4-1.4h6.9c0.8,0,1.4-0.6,1.4-1.4v-2c0-17.6,13.5-32,49.2-30.6c0.7,0,1.3,0.6,1.3,1.4l0.1,18.2
		c0,0.8-0.7,1.4-1.5,1.4C350.2,25.8,345.6,30.7,345.6,37z M408.9,110.1c-24.7,0-44.1-13.5-44.1-36.6c0-24.5,19.4-36.1,44.1-36.1
		c24.7,0,44.1,11.6,44.1,36.1C453,96.6,433.6,110.1,408.9,110.1z M408.9,55.8c-10.9,0-12.9,12-12.9,18.4c0,6.5,2.1,17.6,12.9,17.6
		s12.9-11.2,12.9-17.6C421.8,67.8,419.8,55.8,408.9,55.8z M516.6,59.7c0,0.8-0.8,1.5-1.7,1.3c-3.2-0.7-7.5-1.4-11.4-1.4
		c-4.2,0-8.1,1.2-11,4c-0.3,0.3-0.4,0.6-0.4,1v41.5c0,0.8-0.6,1.4-1.4,1.4H464c-0.8,0-1.4-0.6-1.4-1.4V71.4c0-12-1.7-20.8-4.7-29.6
		c-0.3-0.9,0.3-1.8,1.3-1.8h24.6c0.5,0,1,0.3,1.2,0.7c0.8,1.6,1.4,3,1.9,4.5c0.3,0.9,1.4,1.2,2.2,0.6c6.3-5.2,13.7-8.3,23.9-8.3
		c1,0,2.3,0,3.5,0.1c0.7,0.1,1.3,0.7,1.3,1.4L516.6,59.7z M628.1,107.5c-0.8,0-1.4-0.6-1.4-1.4V67.2c0-6.5-4-9.5-10.1-9.5
		c-4.4,0-7.7,2.2-10.2,5c-0.3,0.3-0.4,0.7-0.3,1.1c0,0.3,0,0.6,0,0.9v41.5c0,0.8-0.6,1.4-1.4,1.4H578c-0.8,0-1.4-0.6-1.4-1.4V67.2
		c0-6.5-4.1-9.5-10.1-9.5c-4.8,0-7.9,2.4-10.2,5c-0.2,0.2-0.3,0.6-0.3,0.9v42.5c0,0.8-0.6,1.4-1.4,1.4h-26.8c-0.8,0-1.4-0.6-1.4-1.4
		V41.3c0-0.8,0.6-1.4,1.4-1.4h24.7c0.8,0,1.4,0.6,1.4,1.4v1.2c0,1.1,1.2,1.8,2.1,1.1c4.8-3.2,12.1-6.2,20.8-6.2
		c10.3,0,18.3,3.4,23.1,8.6c0.5,0.5,1.3,0.6,1.8,0.1c6.9-5.2,14.2-8.8,25.1-8.8c19.5,0,29.4,10.9,29.4,25.9v42.8
		c0,0.8-0.6,1.4-1.4,1.4H628.1z M215.8,59.7c0,0.8-0.8,1.5-1.7,1.3c-3.2-0.7-7.5-1.4-11.4-1.4c-4.2,0-8.1,1.2-11,4
		c-0.3,0.3-0.4,0.6-0.4,1v41.5c0,0.8-0.6,1.4-1.4,1.4h-26.7c-0.8,0-1.4-0.7-1.4-1.4l1.9-36.6c0,0,0-0.1,0-0.1
		c0-11.9-3.4-19-6.6-27.5c-0.3-0.9,0.3-1.9,1.3-1.9H183c0.5,0,1,0.3,1.2,0.7c0.8,1.6,1.4,3,1.9,4.5c0.3,0.9,1.4,1.2,2.2,0.6
		c6.3-5.2,13.7-8.3,23.9-8.3c1,0,2.3,0,3.5,0.1c0.7,0.1,1.3,0.7,1.3,1.4L215.8,59.7z M149.6,40L149.6,40C149.6,40,149.6,40,149.6,40
		L149.6,40z"/>
	<path class="st2" d="M149.6,40L149.6,40C149.6,40,149.6,40,149.6,40L149.6,40z M150,41c-0.2-0.5-0.7-0.9-1.3-0.9
		c-17.1,0.4-32.3,11-38.5,27l-0.9,2.2c-0.5,1.2-2.1,1.2-2.6,0h0c-6-16.8-21.5-28.2-39.2-29.1c-1-0.1-1.8,1-1.3,1.9l28.6,63.4
		c0.2,0.3,0.2,0.7,0,1.1l-10.4,26.8c-0.4,0.9,0.4,1.9,1.4,1.9c16.6-0.8,31.3-11.3,37.4-27l18.4-47.4c0.2-0.5,0.7-0.9,1.3-0.9h11.9
		c0.9,0,1.5-0.8,1.4-1.6C155.1,52.1,152.1,46.5,150,41z"/>
</g>
</svg>
